<?xml version="1.0" encoding="UTF-8"?>
<svg xmlns="http://www.w3.org/2000/svg" xmlns:xlink="http://www.w3.org/1999/xlink" id="a" width="865.76" height="682.89" viewBox="0 0 865.76 682.89">
  <defs>
    <clipPath id="b">
      <circle cx="604.63" cy="-209.01" r="79.99" fill="none"></circle>
    </clipPath>
  </defs>
  <g clip-path="url(#b)">
    <g>
      <polygon points="632.68 29.71 631.45 -7.04 643.17 -6.26 643.17 34.76 632.68 29.71" fill="#f9b499"></polygon>
      <polygon points="576.72 29.71 585.98 -7.04 574.26 -6.26 565.22 35.6 576.72 29.71" fill="#f9b499"></polygon>
      <g>
        <path d="M636.79-173.35s16,22.92,15.57,48c-.43,25.08-5.67,143.95-5.67,143.95h-19.05l-6-155.35-2.51-.15-34.44,155.55-17.77-1.89,20.66-140.67c1.39-9.05,3.85-17.89,7.35-26.35,3-7.21,7.13-15.43,12.29-21.79l29.57-1.3Z" fill="#002954"></path>
        <path d="M585.08,19.19l-18.73-1.99,.08-.51,20.66-140.67c1.39-9.08,3.88-17.98,7.38-26.47,3.78-9.09,7.94-16.46,12.36-21.91l.14-.17,30.07-1.32,.16,.23c.16,.23,16.09,23.34,15.66,48.29-.42,24.8-5.62,142.77-5.67,143.96l-.02,.48h-20.01l-6-155.38-1.63-.1-34.44,155.57Zm-17.59-2.88l16.81,1.79,34.44-155.53,3.39,.2,6,155.32h18.09c.36-8.27,5.24-119.48,5.65-143.46,.4-23.32-13.69-45.04-15.33-47.48l-29.07,1.28c-4.31,5.36-8.37,12.59-12.08,21.49-3.48,8.41-5.94,17.24-7.32,26.23l-20.58,140.15Z" fill="#002346"></path>
      </g>
    </g>
  </g>
  <g>
    <g>
      <rect x="415.45" y="18.44" width="343" height="646" rx="29.62" ry="29.62" fill="#002346"></rect>
      <path d="M728.83,664.94H445.07c-16.61,0-30.12-13.51-30.12-30.12V48.06c0-16.61,13.51-30.12,30.12-30.12h283.76c16.61,0,30.12,13.51,30.12,30.12V634.83c0,16.61-13.51,30.12-30.12,30.12ZM445.07,18.94c-16.06,0-29.12,13.06-29.12,29.12V634.83c0,16.06,13.06,29.12,29.12,29.12h283.76c16.06,0,29.12-13.06,29.12-29.12V48.06c0-16.06-13.06-29.12-29.12-29.12H445.07Z" fill="#002346"></path>
    </g>
    <g>
      <path d="M739.02,60.32V625.41c0,11.85-9.61,21.46-21.46,21.46H452.48c-11.85,0-21.45-9.61-21.45-21.46V60.32c0-11.85,9.6-21.45,21.45-21.46h57.5s6,0,5,10c0,0-2,9,9,9h125.5s7.07,0,7.28-9.5c-.23-1.75-.17-3.52,.18-5.25,.57-2.5,2.8-4.27,5.36-4.25h55.21c11.85-.03,21.49,9.55,21.52,21.4,0,.02,0,.04,0,.06Z" fill="#fff"></path>
      <path d="M717.56,647.37H452.47c-12.1,0-21.95-9.86-21.95-21.96V60.32c0-12.1,9.85-21.95,21.95-21.96h57.5c.08,0,2.02,.02,3.61,1.78,1.65,1.83,2.29,4.78,1.89,8.77-.02,.09-.71,3.4,1.23,5.81,1.41,1.75,3.85,2.64,7.27,2.64h125.5c.27,0,6.58-.14,6.78-9.01-.24-1.73-.18-3.55,.19-5.34,.62-2.7,3.06-4.65,5.82-4.65h55.31c5.84,0,11.34,2.27,15.48,6.39,4.16,4.14,6.46,9.64,6.48,15.51V625.41c0,12.11-9.85,21.96-21.96,21.96ZM452.47,39.36c-11.55,0-20.95,9.41-20.95,20.96V625.41c0,11.55,9.4,20.96,20.95,20.96h265.08c11.57,0,20.97-9.4,20.97-20.96V60.26c-.02-5.6-2.21-10.86-6.18-14.8-3.96-3.93-9.2-6.1-14.78-6.1h-55.3c-2.3,0-4.33,1.62-4.84,3.86-.34,1.67-.4,3.38-.17,5.07-.21,9.95-7.7,10.07-7.78,10.07h-125.5c-3.74,0-6.45-1.02-8.06-3.02-2.24-2.79-1.46-6.44-1.43-6.59,.36-3.63-.19-6.31-1.63-7.93-1.28-1.43-2.82-1.46-2.88-1.47h-57.5Z" fill="#002346"></path>
    </g>
    <g>
      <path d="M570.52,40.86h32c1.38,0,2.5,1.12,2.5,2.5h0c0,1.38-1.12,2.5-2.5,2.5h-32c-1.38,0-2.5-1.12-2.5-2.5h0c0-1.38,1.12-2.5,2.5-2.5Z" fill="#fff"></path>
      <path d="M602.52,46.36h-32c-1.65,0-3-1.35-3-3s1.35-3,3-3h32c1.65,0,3,1.35,3,3s-1.35,3-3,3Zm-32-5c-1.1,0-2,.9-2,2s.9,2,2,2h32c1.1,0,2-.9,2-2s-.9-2-2-2h-32Z" fill="#002346"></path>
    </g>
    <g>
      <path d="M739.02,60.32v95.54H431.02V60.32c0-11.85,9.6-21.45,21.45-21.46h57.5s6,0,5,10c0,0-2,9,9,9h125.5s7.07,0,7.28-9.5c-.23-1.75-.17-3.52,.18-5.25,.57-2.5,2.8-4.27,5.36-4.25h55.21c11.85-.03,21.49,9.55,21.52,21.4,0,.02,0,.04,0,.06Z" fill="#002954"></path>
      <path d="M739.52,156.36H430.52V60.32c0-12.1,9.85-21.95,21.95-21.96h57.5c.08,0,2.02,.02,3.61,1.78,1.65,1.83,2.29,4.78,1.89,8.77-.02,.09-.71,3.4,1.23,5.81,1.41,1.75,3.85,2.64,7.27,2.64h125.5c.27,0,6.58-.14,6.78-9.01-.24-1.73-.18-3.55,.19-5.34,.62-2.7,3.06-4.65,5.82-4.65h55.31c5.84,0,11.34,2.27,15.48,6.39,4.16,4.14,6.46,9.64,6.48,15.51v96.1Zm-308-1h307V60.26c-.02-5.6-2.21-10.86-6.18-14.8-3.96-3.93-9.2-6.1-14.78-6.1h-55.3c-2.3,0-4.33,1.62-4.84,3.86-.34,1.67-.4,3.38-.17,5.07-.21,9.95-7.7,10.07-7.78,10.07h-125.5c-3.74,0-6.45-1.02-8.06-3.02-2.24-2.79-1.46-6.44-1.43-6.59,.36-3.63-.19-6.31-1.63-7.93-1.28-1.43-2.82-1.46-2.88-1.47h-57.5c-11.55,0-20.95,9.41-20.95,20.96v95.04Z" fill="#002346"></path>
    </g>
    <path d="M455.02,99.4c-.13,0-.26-.05-.35-.15l-6-6.04c-.19-.2-.19-.51,0-.71l6-6c.2-.2,.51-.2,.71,0s.2,.51,0,.71l-5.65,5.65,5.65,5.69c.2,.2,.19,.51,0,.71-.1,.1-.23,.15-.35,.15Z" fill="#fff"></path>
    <circle cx="454.02" cy="51.86" r="2" fill="#fff"></circle>
    <circle cx="461.02" cy="51.86" r="2" fill="#fff"></circle>
    <circle cx="467.02" cy="51.86" r="2" fill="#fff"></circle>
    <circle cx="473.02" cy="51.86" r="2" fill="#fff"></circle>
    <circle cx="480.02" cy="51.86" r="2" fill="#fff"></circle>
    <circle cx="722.02" cy="89.48" r="1.5" fill="#fff"></circle>
    <circle cx="722.02" cy="93.98" r="1.5" fill="#fff"></circle>
    <circle cx="722.02" cy="99.23" r="1.5" fill="#fff"></circle>
    <rect x="700.02" y="48.86" width="12" height="7" fill="#002346"></rect>
    <g>
      <rect x="388.02" y="180.86" width="390" height="103" fill="#008346"></rect>
      <path d="M778.52,284.36H387.52v-104h391v104Zm-390-1h389v-102H388.52v102Z" fill="#002346"></path>
    </g>
    <g>
      <path d="M475.02,328.41c0,5.25-4.25,9.5-9.5,9.5s-9.5-4.25-9.5-9.5,4.25-9.5,9.5-9.5h0c5.21-.03,9.47,4.17,9.5,9.38,0,.04,0,.08,0,.12Z" fill="#002954"></path>
      <path d="M465.52,338.41c-5.51,0-10-4.49-10-10s4.56-10.01,10.07-10c2.63,0,5.1,1.02,6.98,2.87,1.89,1.87,2.94,4.36,2.96,7.01v.12c0,5.51-4.49,10-10,10Zm.06-19h-.06c-4.97,0-9,4.04-9,9s4.04,9,9,9,9-4.04,9-9v-.12c-.03-4.91-4.04-8.88-8.94-8.88Z" fill="#002346"></path>
    </g>
    <g>
      <path d="M471.94,335.41c-3.61,3.31-9.15,3.33-12.78,.05,.35-2.42,2.03-4.43,4.34-5.21-.45-.31-.82-.73-1.07-1.22-.9-1.71-.24-3.82,1.47-4.71,1.71-.9,3.82-.24,4.71,1.47,.81,1.53,.36,3.43-1.04,4.45,2.32,.76,4.02,2.76,4.37,5.18Z" fill="#fff"></path>
      <path d="M465.52,338.42c-2.39,0-4.78-.86-6.7-2.59l-.2-.18,.04-.26c.34-2.34,1.8-4.3,3.9-5.3-.23-.25-.42-.53-.58-.84-.49-.94-.59-2.02-.28-3.03s1.01-1.85,1.95-2.35c.94-.5,2.02-.6,3.04-.28,1.02,.32,1.85,1.01,2.35,1.95,.78,1.48,.53,3.29-.55,4.51,2.11,.98,3.59,2.93,3.94,5.28l.04,.26-.2,.18c-1.92,1.76-4.34,2.65-6.75,2.65Zm-5.82-3.16c3.39,2.89,8.33,2.87,11.7-.05-.41-2.12-1.91-3.84-3.99-4.51l-.93-.3,.79-.58c1.19-.87,1.58-2.5,.89-3.81-.37-.71-1-1.23-1.76-1.46-.76-.24-1.57-.16-2.28,.21s-1.23,1-1.46,1.76-.16,1.57,.21,2.28c.21,.42,.53,.78,.91,1.04l.83,.57-.95,.32c-2.06,.69-3.56,2.42-3.96,4.54Z" fill="#002346"></path>
    </g>
    <g>
      <rect x="483.02" y="320.86" width="58" height="7" fill="#002954"></rect>
      <path d="M541.52,328.36h-59v-8h59v8Zm-58-1h57v-6h-57v6Z" fill="#002346"></path>
    </g>
    <g>
      <rect x="483.02" y="330.86" width="48" height="4" fill="#fff"></rect>
      <path d="M531.52,335.36h-49v-5h49v5Zm-48-1h47v-3h-47v3Z" fill="#002346"></path>
    </g>
    <path d="M492.74,260.36h-49.43c-4.29,0-7.78-3.5-7.78-7.79v-28.43c0-4.29,3.49-7.78,7.78-7.78h11.18l.04-2.83c0-1.75,1.42-3.17,3.17-3.17h21.65c1.75,0,3.17,1.42,3.18,3.17v2.79l10.21,.04c4.29,0,7.79,3.49,7.79,7.78v28.43c0,4.29-3.5,7.78-7.79,7.79Zm-49.43-43c-3.74,0-6.78,3.04-6.78,6.78v28.43c0,3.74,3.04,6.78,6.78,6.79h49.43c3.74,0,6.79-3.05,6.79-6.79v-28.43c0-3.74-3.05-6.78-6.79-6.78h-10.18c-.57,0-1.03-.46-1.03-1.03v-2.8c0-1.2-.98-2.17-2.18-2.17h-21.65c-1.2,0-2.17,.97-2.17,2.17v2.79c0,.57-.47,1.04-1.04,1.04h-11.18Z" fill="#002346"></path>
    <path d="M468.02,253.36c-8,0-14.5-6.5-14.5-14.5s6.5-14.5,14.5-14.5,14.5,6.5,14.5,14.5-6.5,14.5-14.5,14.5Zm0-28c-7.44,0-13.5,6.06-13.5,13.5s6.06,13.5,13.5,13.5,13.5-6.06,13.5-13.5-6.06-13.5-13.5-13.5Z" fill="#002346"></path>
    <path d="M490.02,229.36c-1.93,0-3.5-1.57-3.5-3.5s1.57-3.5,3.5-3.5,3.5,1.57,3.5,3.5-1.57,3.5-3.5,3.5Zm0-6c-1.38,0-2.5,1.12-2.5,2.5s1.12,2.5,2.5,2.5,2.5-1.12,2.5-2.5-1.12-2.5-2.5-2.5Z" fill="#002346"></path>
    <path d="M573.67,260.36h-31.28c-2.68,0-4.86-2.18-4.86-4.86v-41.28c0-2.68,2.18-4.86,4.86-4.86h31.28c2.68,0,4.86,2.18,4.86,4.86v41.28c0,2.68-2.18,4.86-4.86,4.86Zm-31.28-50c-2.13,0-3.86,1.73-3.86,3.86v41.28c0,2.13,1.73,3.86,3.86,3.86h31.28c2.13,0,3.86-1.73,3.86-3.86v-41.28c0-2.13-1.73-3.86-3.86-3.86h-31.28Z" fill="#002346"></path>
    <path d="M543.46,219.36h-10.43c-.28,0-.5-.22-.5-.5s.22-.5,.5-.5h10.43c.28,0,.5,.22,.5,.5s-.22,.5-.5,.5Z" fill="#002346"></path>
    <path d="M543.46,230.02h-10.43c-.28,0-.5-.22-.5-.5s.22-.5,.5-.5h10.43c.28,0,.5,.22,.5,.5s-.22,.5-.5,.5Z" fill="#002346"></path>
    <path d="M543.46,240.69h-10.43c-.28,0-.5-.22-.5-.5s.22-.5,.5-.5h10.43c.28,0,.5,.22,.5,.5s-.22,.5-.5,.5Z" fill="#002346"></path>
    <path d="M543.46,251.36h-10.43c-.28,0-.5-.22-.5-.5s.22-.5,.5-.5h10.43c.28,0,.5,.22,.5,.5s-.22,.5-.5,.5Z" fill="#002346"></path>
    <path d="M567.02,247.36h-18c-.28,0-.5-.22-.5-.5v-1c0-5.24,4.26-9.5,9.5-9.5s9.5,4.26,9.5,9.5v1c0,.28-.22,.5-.5,.5Zm-17.5-1h17v-.5c0-4.69-3.81-8.5-8.5-8.5s-8.5,3.81-8.5,8.5v.5Z" fill="#002346"></path>
    <path d="M558.02,234.36c-3.03,0-5.5-2.47-5.5-5.5s2.47-5.5,5.5-5.5,5.5,2.47,5.5,5.5-2.47,5.5-5.5,5.5Zm0-10c-2.48,0-4.5,2.02-4.5,4.5s2.02,4.5,4.5,4.5,4.5-2.02,4.5-4.5-2.02-4.5-4.5-4.5Z" fill="#002346"></path>
    <path d="M630.02,246.36c-8.55,0-15.5-6.95-15.5-15.5v-5c0-.28,.22-.5,.5-.5s.5,.22,.5,.5v5c0,8,6.5,14.5,14.5,14.5s14.5-6.5,14.5-14.5v-5c0-.28,.22-.5,.5-.5s.5,.22,.5,.5v5c0,8.55-6.95,15.5-15.5,15.5Z" fill="#002346"></path>
    <path d="M629.52,239.36c-4.96,0-9-4.04-9-9v-12c0-4.96,4.04-9,9-9s9,4.04,9,9v12c0,4.96-4.04,9-9,9Zm0-29c-4.41,0-8,3.59-8,8v12c0,4.41,3.59,8,8,8s8-3.59,8-8v-12c0-4.41-3.59-8-8-8Z" fill="#002346"></path>
    <path d="M627.5,218.86h-6.47c-.28,0-.5-.22-.5-.5s.22-.5,.5-.5h6.47c.28,0,.5,.22,.5,.5s-.22,.5-.5,.5Z" fill="#002346"></path>
    <path d="M627.5,225.86h-6.47c-.28,0-.5-.22-.5-.5s.22-.5,.5-.5h6.47c.28,0,.5,.22,.5,.5s-.22,.5-.5,.5Z" fill="#002346"></path>
    <path d="M627.5,231.86h-6.47c-.28,0-.5-.22-.5-.5s.22-.5,.5-.5h6.47c.28,0,.5,.22,.5,.5s-.22,.5-.5,.5Z" fill="#002346"></path>
    <path d="M638.5,218.86h-6.47c-.28,0-.5-.22-.5-.5s.22-.5,.5-.5h6.47c.28,0,.5,.22,.5,.5s-.22,.5-.5,.5Z" fill="#002346"></path>
    <path d="M638.5,225.86h-6.47c-.28,0-.5-.22-.5-.5s.22-.5,.5-.5h6.47c.28,0,.5,.22,.5,.5s-.22,.5-.5,.5Z" fill="#002346"></path>
    <path d="M638.5,231.86h-6.47c-.28,0-.5-.22-.5-.5s.22-.5,.5-.5h6.47c.28,0,.5,.22,.5,.5s-.22,.5-.5,.5Z" fill="#002346"></path>
    <path d="M643.02,260.36h-26c-.28,0-.5-.22-.5-.5v-2.45c.03-2.79,2.32-5.05,5.1-5.05h16.8c2.81,0,5.1,2.29,5.1,5.1v2.4c0,.28-.22,.5-.5,.5Zm-25.5-1h25v-1.9c0-2.26-1.84-4.1-4.1-4.1h-16.8c-2.24,0-4.08,1.82-4.1,4.06v1.94Z" fill="#002346"></path>
    <path d="M630.02,253.36c-.28,0-.5-.22-.5-.5v-7c0-.28,.22-.5,.5-.5s.5,.22,.5,.5v7c0,.28-.22,.5-.5,.5Z" fill="#002346"></path>
    <path d="M727.86,260.36h-48.52c-.16,0-.31-.08-.41-.21-.09-.13-.12-.3-.07-.45l5.67-17c.07-.2,.26-.34,.47-.34h37.11c.21,0,.41,.14,.47,.34l5.74,17c.05,.15,.03,.32-.07,.45s-.25,.21-.41,.21Zm-47.83-1h47.13l-5.4-16h-36.39l-5.34,16Z" fill="#002346"></path>
    <path d="M688.02,260.36c-.2,0-.39-.12-.47-.32-.1-.26,.03-.55,.29-.64l35.35-13.31c.26-.1,.55,.03,.64,.29,.1,.26-.03,.55-.29,.64l-35.35,13.31c-.06,.02-.12,.03-.18,.03Z" fill="#002346"></path>
    <path d="M698.97,256.23c-.15,0-.3-.07-.4-.2l-9.73-12.87c-.17-.22-.12-.53,.1-.7,.22-.17,.53-.12,.7,.1l9.73,12.87c.17,.22,.12,.53-.1,.7-.09,.07-.2,.1-.3,.1Z" fill="#002346"></path>
    <path d="M720.68,260.36c-.14,0-.29-.06-.38-.18l-7.81-9.36c-.18-.21-.15-.53,.06-.7,.21-.18,.53-.15,.7,.06l7.81,9.36c.18,.21,.15,.53-.06,.7-.09,.08-.21,.12-.32,.12Z" fill="#002346"></path>
    <g>
      <path d="M351.96,508.1l54.91,112.17c.75,1.53,.12,3.38-1.41,4.13-.42,.21-.89,.32-1.37,.32h-15.91c-1.29,0-2.44-.8-2.9-2l-41.81-109.76,8.49-4.86Z" fill="#e6e7e8"></path>
      <path d="M404.1,625.22h-15.91c-1.49,0-2.84-.93-3.37-2.32l-41.96-110.16,9.32-5.34,.23,.48,54.91,112.17c.87,1.78,.13,3.93-1.64,4.8-.49,.24-1.04,.37-1.59,.37Zm-60-112.04l41.66,109.36c.38,1,1.36,1.68,2.43,1.68h15.91c.4,0,.79-.09,1.15-.26,1.28-.63,1.81-2.18,1.19-3.47l-54.68-111.69-7.66,4.38Z" fill="#002346"></path>
    </g>
    <g>
      <path d="M166.66,508.1l-54.91,112.17c-.75,1.53-.12,3.38,1.41,4.13,.42,.21,.89,.32,1.37,.32h15.95c1.29,0,2.44-.8,2.9-2l41.83-109.77-8.55-4.85Z" fill="#e6e7e8"></path>
      <path d="M130.47,625.22h-15.95c-.55,0-1.1-.13-1.58-.37-1.78-.87-2.51-3.03-1.64-4.8l55.14-112.65,9.39,5.32-.15,.4-41.83,109.77c-.53,1.39-1.88,2.32-3.37,2.32Zm36.4-116.42l-54.68,111.69c-.63,1.28-.1,2.84,1.19,3.47,.35,.17,.75,.26,1.14,.26h15.95c1.07,0,2.05-.67,2.43-1.68l41.68-109.37-7.71-4.38Z" fill="#002346"></path>
    </g>
    <g>
      <path d="M267.48,508.1l-45.18,112.17c-.75,1.53-.12,3.38,1.41,4.13,.42,.21,.89,.32,1.37,.32h9.84c1.28,0,2.43-.8,2.89-2l38.19-109.77-8.52-4.85Z" fill="#e6e7e8"></path>
      <path d="M234.92,625.22h-9.84c-.55,0-1.1-.13-1.58-.37-1.78-.87-2.51-3.03-1.64-4.8l45.38-112.67,9.38,5.34-38.33,110.16c-.53,1.4-1.88,2.33-3.36,2.34Zm32.81-116.4l-44.97,111.64c-.64,1.32-.11,2.87,1.17,3.5,.35,.17,.75,.26,1.14,.26h9.84c1.07,0,2.04-.68,2.42-1.68l38.05-109.36-7.66-4.36Z" fill="#002346"></path>
    </g>
    <g>
      <path d="M126.09,282.14s88.66,20.86,156.34,3.14c0,0,9.82,141.42,36.32,156.61,0,0,17.91,10.95,60,14.3,7.67,.53,15.36,.36,23-.51,6.12-.63,14.75,1.8,11.52,22.05,0,0-13.37,59.52-100.84,66.81,0,0-81.39,2.43-123.91-52.24l-52.24-59.52s-15.62-29.53-22.38-87.05l12.19-63.59Z" fill="#e6e7e8"></path>
      <path d="M311.01,545.05c-5.12,0-23.15-.41-44.71-5.65-23.49-5.7-56.12-18.45-78.18-46.8l-52.26-59.54-.03-.05c-.16-.3-15.74-30.27-22.43-87.22v-.08s0-.08,0-.08l12.29-64.1,.51,.12c.62,.15,44.22,10.21,93.24,10.21,20.94,0,42.87-1.84,62.86-7.07l.58-.15,.04,.6c.1,1.41,10.1,141.33,36.07,156.21,.19,.12,18.34,10.94,59.79,14.24,7.61,.53,15.32,.36,22.9-.51,3.91-.4,7.11,.6,9.28,2.88,3.38,3.57,4.32,10.21,2.79,19.74-.04,.18-3.54,15.22-17.74,30.93-13.09,14.47-38.2,32.52-83.55,36.3-.04,0-.54,.01-1.46,.01Zm-174.32-112.56l52.2,59.47c21.89,28.14,54.29,40.79,77.62,46.46,25.31,6.14,45.69,5.62,45.9,5.61,44.96-3.75,69.86-21.61,82.83-35.93,14.05-15.52,17.51-30.34,17.54-30.49,1.46-9.18,.61-15.54-2.54-18.87-1.97-2.08-4.81-2.95-8.44-2.58-7.64,.87-15.41,1.04-23.08,.51-41.73-3.32-60.05-14.26-60.23-14.37-25.81-14.79-35.7-145.04-36.52-156.4-64.31,16.6-148.17-1.53-155.49-3.17l-12.08,63.01c6.54,55.6,21.56,85.33,22.29,86.75Z" fill="#002346"></path>
    </g>
    <g>
      <path d="M444.86,570.05l-16,11.12-12,8.32-62.38-60.08-101-89.89c17.71-10.29,32.45-9.14,40.05-7.35,1.92,.41,3.79,1.02,5.59,1.82l49.81,22.12c20.62,12.71,32.8,28.9,32.8,28.9l63.13,85.04Z" fill="#008346"></path>
      <path d="M416.8,590.13l-62.67-60.36-101.5-90.34,.6-.35c18.03-10.48,33.06-9.14,40.42-7.4,1.94,.42,3.86,1.04,5.68,1.85l49.81,22.12c20.53,12.64,32.87,28.89,33,29.06l63.44,85.46-28.76,19.97Zm-162.48-150.53l100.48,89.43,62.1,59.81,27.24-18.91-62.82-84.63c-.12-.16-12.36-16.26-32.66-28.77l-49.75-22.09c-1.76-.78-3.61-1.38-5.49-1.79-7.14-1.68-21.62-2.98-39.09,6.95Z" fill="#002346"></path>
    </g>
    <g>
      <path d="M369.54,619.86l-26.06,4.86c-17.01-30.79-40.54-98.05-44.83-110.48-.42-1.2-1.54-2.01-2.81-2.03l-29.8-.48c-80.43,7.3-60.48-66.82-60.48-66.82l10.92-10.93,33.31,5,3.66,.55c37,12.82,76,38.21,76,38.21,28.1,21.07,40.09,142.11,40.09,142.11Z" fill="#008346"></path>
      <path d="M343.21,625.28l-.17-.32c-16.98-30.75-40.36-97.49-44.87-110.56-.34-1-1.29-1.67-2.34-1.69l-29.8-.48c-24.55,2.23-42.29-2.91-52.7-15.28-16.7-19.86-8.34-51.85-8.26-52.17l.03-.13,11.19-11.2,.25,.04,36.97,5.55c36.72,12.71,75.81,38.03,76.2,38.29,27.99,20.98,39.82,137.53,40.31,142.48l.05,.46-26.87,5.01Zm-77.22-114.04l29.85,.47c1.47,.02,2.79,.97,3.27,2.36,4.49,13.01,27.7,79.27,44.62,110.08l25.25-4.71c-.85-8.16-13.1-121.25-39.85-141.3-.36-.24-39.35-25.49-75.86-38.14l-3.57-.53-33.06-4.96-10.65,10.65c-.56,2.21-7.74,32.31,8.09,51.14,10.18,12.11,27.63,17.13,51.89,14.93Z" fill="#002346"></path>
    </g>
    <g>
      <path d="M407.19,658.09c-13.92,6.59-22.1,5.41-25.72,4.14-1.51-.53-2.22-1.07-2.22-1.07l-17.93-10.76-6.37-3.82c-4.07-2.33-5.82-7.64-6.54-12.55-.77-5.33-.33-10.18-.33-10.18l21.45-4c1.77,4.05,4.23,7.75,7.29,10.93l20.89,12.85,9.48,5.83c9.72,5.32,0,8.63,0,8.63Z" fill="#002954"></path>
      <path d="M387.97,663.72c-2.99,0-5.19-.5-6.66-1.02-1.57-.55-2.33-1.12-2.36-1.14l-24.25-14.55c-3.54-2.02-5.82-6.37-6.78-12.91-.77-5.33-.34-10.25-.33-10.3l.03-.38,22.21-4.14,.16,.36c1.75,4,4.15,7.62,7.15,10.74l30.32,18.65c3.16,1.73,4.7,3.51,4.55,5.27-.23,2.65-4.21,4.11-4.62,4.25-8.47,4.01-14.86,5.16-19.42,5.16Zm-39.41-39.45c-.08,1.23-.28,5.32,.36,9.69,.91,6.22,3.03,10.32,6.29,12.19l24.31,14.58c.05,.04,.73,.54,2.13,1.03,3.57,1.25,11.61,2.38,25.34-4.12l.05-.02c1.05-.36,3.83-1.68,3.97-3.4,.11-1.31-1.29-2.8-4.05-4.31l-30.49-18.77c-3.01-3.12-5.44-6.73-7.23-10.71l-20.68,3.86Z" fill="#002346"></path>
    </g>
    <g>
      <rect x="251.32" y="256.58" width="49" height="61.96" rx="24.5" ry="24.5" transform="translate(111.89 -75.61) rotate(19.51)" fill="#f2b3c1"></rect>
      <path d="M273.63,318.67c-2.77,0-5.58-.46-8.33-1.44-13-4.6-19.82-18.92-15.22-31.92l4.33-12.21c4.6-13,18.92-19.82,31.92-15.22,13,4.6,19.82,18.92,15.22,31.92l-4.33,12.21c-3.63,10.24-13.3,16.65-23.59,16.65Zm4.37-61.22c-9.88,0-19.16,6.15-22.64,15.98l-4.33,12.21c-4.42,12.47,2.13,26.21,14.6,30.63,12.47,4.42,26.21-2.13,30.63-14.6l4.33-12.21c4.42-12.47-2.13-26.21-14.6-30.63-2.64-.94-5.34-1.38-7.99-1.38Z" fill="#002346"></path>
    </g>
    <g>
      <path d="M291.79,339.23c-33.61,19.18-57.74-10.21-58.31-10.92h7.87c2.34,0,4.68-.69,6.49-2.18,7.16-5.87,5.71-20.32,5.71-20.32,7,14,22.1,12.13,22.1,12.13v9.32c-.3,6.24,16.14,11.96,16.14,11.96Z" fill="#f2b3c1"></path>
      <path d="M269.13,346.16c-21.63,0-35.86-17.31-36.04-17.54l-.66-.82h8.92c2.35,0,4.54-.73,6.17-2.06,6.87-5.63,5.55-19.73,5.53-19.88l-.27-2.73,1.23,2.45c6.75,13.5,21.43,11.88,21.58,11.86l.57-.07v9.89c-.23,4.83,11.33,9.93,15.8,11.48l1.05,.36-.96,.55c-8.25,4.71-15.96,6.5-22.91,6.5Zm-34.56-17.35c4.19,4.75,26.04,26.89,56.01,10.51-3.69-1.4-15.71-6.42-15.44-12.08v-8.75c-2.69,.16-14.38,.15-20.97-10.52,.1,4.34-.37,13.92-6.02,18.55-1.8,1.48-4.22,2.29-6.81,2.29h-6.78Z" fill="#002346"></path>
    </g>
    <g>
      <path d="M228.33,302.96s13.66,15,23.84,15.4c0,0,1.95-8.75,1.21-13.89,0,0-4.95-11.15-1.63-20.91,0,0-.5,8.3,1.4,10.81,0,0-.69-6,4.25-12.06,0,0,3.73-4.86,3.73-8.5,0,0,7.29-1.22,12.15,3.64l8.51-7.29-2.43,7.25s3.64,3.65,8.5,2.43l1.22-8.5,1.21,8.5c4.42,.93,8.03,4.12,9.49,8.4,0,0-2.81,26.22-24.39,29.83v4.72h19.85s6,.65,6.12-9.29c.02-2.34,.32-4.67,.88-6.94,3.13-12.17,10.78-51-16.81-57.09,0,0-40.09-12.15-48.59,34,0,.06-2.43,17.06-8.51,19.49Z" fill="#002346"></path>
      <path d="M295.46,323.3c-.16,0-.26,0-.28-.01h-20.3s0-5.64,0-5.64l.42-.07c20.27-3.39,23.73-27.45,23.96-29.28-1.42-4.04-4.89-7.08-9.08-7.97l-.34-.07-.77-5.38-.77,5.37-.33,.08c-5.08,1.27-8.82-2.41-8.98-2.56l-.22-.22,1.95-5.83-7.49,6.41-.33-.33c-3.98-3.99-9.75-3.71-11.31-3.55-.26,3.69-3.67,8.17-3.82,8.36-4.76,5.84-4.16,11.64-4.15,11.7l.21,1.82-1.1-1.46c-.99-1.31-1.37-4-1.5-6.41-.85,8.11,2.55,15.91,2.59,16.01l.04,.13c.74,5.17-1.14,13.71-1.22,14.07l-.09,.41-.42-.02c-10.27-.4-23.63-14.95-24.19-15.56l-.49-.53,.67-.27c5.08-2.03,7.8-15.78,8.2-19.08,2.71-14.7,8.86-25.05,18.29-30.79,14.09-8.58,30.77-3.68,30.94-3.63,6.79,1.5,12.01,5.11,15.46,10.74,8.75,14.25,4.09,37.58,1.69,46.95-.55,2.22-.84,4.52-.86,6.82-.05,3.94-1,6.77-2.83,8.39-1.42,1.26-2.95,1.4-3.56,1.4Zm-19.57-1.01h19.35c.11,0,1.68,.15,3.14-1.16,1.6-1.43,2.44-4,2.48-7.64,.02-2.38,.32-4.75,.89-7.05,2.38-9.25,6.99-32.26-1.57-46.18-3.31-5.39-8.31-8.85-14.86-10.3-.2-.06-16.47-4.84-30.18,3.52-9.17,5.59-15.17,15.71-17.81,30.08,0,.07-2.29,16.16-8.17,19.55,2.41,2.53,13.84,14.03,22.61,14.72,.37-1.78,1.73-8.86,1.12-13.23-.44-1.02-4.87-11.66-1.62-21.21l1.2-3.51-.22,3.71c-.1,1.69-.14,5.64,.46,8.33,.26-2.37,1.21-6.13,4.31-9.93,.03-.04,3.62-4.76,3.62-8.18v-.42l.42-.07c.3-.05,7.28-1.16,12.25,3.46l9.54-8.17-2.9,8.66c.82,.7,3.77,2.94,7.48,2.17l1.67-11.62,1.65,11.62c4.42,1.05,8.05,4.34,9.52,8.65l.04,.1v.11c-.04,.26-3.07,26.3-24.4,30.2v3.8Z" fill="#002346"></path>
    </g>
    <g>
      <path d="M350.1,372.03c-6.07,54.67-19.43,60.75-19.43,60.75-16.65,9.98-29.24-19.63-31.3-24.83-.08-.2-.36-.15-.39,.06l-1.01,9.15c-.6,5.42-.01,10.84,1,16.2,.04,.23,.08,.46,.1,.69-18.22-8.5-41.3,3.65-41.3,3.65-18.23,8.5-31.07,7.28-31.07,7.28h-21.17c-2.25-3.12-2.78-7.16-1.4-10.75,1.86-4.68,3.08-9.59,3.63-14.59,1.82-19.2-2.23-42.69-2.23-42.69-3.41-14.29-2.15-25.69-.43-32.86,1.61-6.73,5.92-12.59,12.07-15.78,9.74-5.05,16.31,.05,16.31,.05h0c.56,.71,24.69,30.13,58.3,10.92,15.79-1.21,30.37,43.74,30.37,43.74l6.08-10.94,21.87-.04Z" fill="#002954"></path>
      <path d="M228.42,445.52c-1.12,0-1.74-.05-1.76-.06h-21.38s-.15-.21-.15-.21c-2.36-3.27-2.91-7.46-1.46-11.22,1.84-4.64,3.05-9.51,3.6-14.47,1.79-18.91-2.19-42.32-2.23-42.55-3.44-14.43-2.13-25.95-.43-33.06,1.69-7.05,6.18-12.92,12.32-16.11,9.91-5.14,16.78,.05,16.84,.1l.09,.08c.24,.3,24.16,29.94,57.66,10.79l.21-.06c.22-.02,.45-.03,.67-.03,14.53,0,27.5,36.1,29.86,43.03l5.67-10.2,22.72-.04-.06,.56c-6.03,54.33-19.16,60.9-19.72,61.15-3.64,2.19-7.42,2.66-11.18,1.39-10.49-3.56-18.08-19.97-20.34-25.39l-.88,7.97c-.51,4.65-.2,9.75,1,16.05,.05,.24,.08,.49,.1,.74l.08,.87-.79-.37c-17.78-8.3-40.63,3.52-40.86,3.64-14.3,6.67-25.43,7.39-29.58,7.39Zm-22.63-1.05h20.91c.18,.01,12.98,1.1,30.86-7.23,.21-.11,22.78-11.79,40.88-4.03-1.18-6.29-1.48-11.42-.96-16.11l1.01-9.15c.04-.32,.29-.58,.61-.62,.33-.04,.62,.14,.74,.44,1.45,3.68,9.25,22.2,20.18,25.91,3.47,1.18,6.97,.73,10.39-1.32,.18-.09,13.16-6.81,19.13-59.82l-21.02,.04-6.5,11.69-.35-1.09c-.14-.45-14.53-44.34-29.75-43.4-8.31,4.73-16.04,6.52-22.99,6.52-21.08,0-34.93-16.49-35.81-17.57-.62-.46-6.71-4.65-15.73,.03-5.89,3.05-10.19,8.69-11.81,15.45-1.68,7.01-2.97,18.36,.43,32.63,.05,.27,4.05,23.81,2.24,42.85-.56,5.06-1.79,10.01-3.66,14.73-1.29,3.36-.84,7.11,1.19,10.07Z" fill="#002346"></path>
    </g>
    <g>
      <path d="M328.24,372.03l-6.08,10.94-1.31,6.23s9,8,25.19,8.79c1.86-8.58,3.21-17.26,4.06-26l-21.86,.04Z" fill="#fff"></path>
      <path d="M346.43,398.51l-.42-.02c-16.18-.79-25.4-8.83-25.5-8.92l-.21-.19,1.42-6.65,6.22-11.2,22.7-.04-.05,.54c-.85,8.73-2.22,17.49-4.07,26.06l-.09,.41Zm-25.04-9.5c1.45,1.17,10.04,7.65,24.25,8.46,1.76-8.22,3.08-16.62,3.91-24.99l-21.02,.04-5.9,10.62-1.23,5.86Z" fill="#002346"></path>
    </g>
    <g>
      <path d="M264.55,384.09s3.64,23.06,9.99,29.73c0,0,11.11-5.56,23.98-23.62,.85-1.19,.64-2.81-.45-3.8-5.64-5.11-8.9-12.4-8.9-20.08l-24.63,17.77Z" fill="#fff"></path>
      <path d="M274.44,414.42l-.25-.27c-6.39-6.7-9.98-29.04-10.12-29.99l-.05-.3,25.66-18.52v.97c0,7.49,3.19,14.68,8.74,19.71,1.28,1.16,1.5,3.07,.52,4.45-12.79,17.96-24.05,23.72-24.17,23.78l-.33,.16Zm-9.35-30.11c.45,2.68,3.92,22.49,9.56,28.88,1.92-1.08,12.05-7.26,23.47-23.29,.69-.97,.53-2.32-.38-3.14-5.52-5.01-8.78-12.06-9.04-19.49l-23.61,17.04Z" fill="#002346"></path>
    </g>
    <g>
      <path d="M297.33,356.99l-7.97,8.96s-.9,11.49,7.29,18.22c0,0,0-6.07,3.65-7.29,0,0,6.23-1.21,9.79-10.93,0,0,2.35-4.86,6-1.21,0,0,3.45,5.26,4.76,.2,0,0,.1-17.21-9.62-12.35,2.63-1.65,5.5-2.88,8.5-3.65,0,0,2.94-.98,4.78-2.32,1.14-.83,.56-2.64-.85-2.61-3.58,.06-11.31,.9-20.93,6.15,0,0-.9,0-2.65,2.98-.8,1.36-1.7,2.66-2.75,3.84Z" fill="#f2b3c1"></path>
      <path d="M297.15,385.25l-.82-.68c-8.3-6.82-7.51-18.17-7.47-18.65v-.17s8.1-9.09,8.1-9.09c.97-1.09,1.85-2.32,2.69-3.76,1.5-2.56,2.46-3.12,2.92-3.22,9.6-5.22,17.33-6.11,21.08-6.17,.87,.03,1.59,.5,1.86,1.32,.28,.83,0,1.7-.71,2.21-1.88,1.37-4.79,2.35-4.91,2.39-1.76,.45-3.46,1.06-5.09,1.81,.77,.06,1.48,.29,2.14,.7,4.43,2.75,4.42,12.59,4.42,13.01l-.02,.12c-.4,1.54-1.06,2.4-1.97,2.55-1.69,.28-3.37-2.11-3.67-2.56-.91-.9-1.79-1.28-2.62-1.15-1.54,.26-2.53,2.24-2.54,2.26-3.6,9.83-9.88,11.15-10.15,11.21-3.2,1.07-3.24,6.74-3.24,6.79v1.07Zm-7.3-19.08c-.06,1.36-.23,10.86,6.35,16.96,.18-1.89,.93-5.71,3.93-6.71,.12-.03,6.07-1.32,9.48-10.63,.07-.15,1.23-2.51,3.29-2.86,1.18-.2,2.37,.29,3.54,1.46l.06,.08c.5,.77,1.81,2.28,2.69,2.16,.46-.08,.86-.7,1.14-1.75,0-.83-.16-9.73-3.94-12.09-1.32-.82-2.98-.73-4.95,.25l-.49-.88c2.68-1.68,5.59-2.92,8.64-3.71h0s2.85-.96,4.6-2.24c.42-.3,.45-.75,.34-1.07-.1-.3-.38-.63-.87-.63h-.02c-3.67,.06-11.25,.94-20.69,6.09l-.11,.06h-.13s-.76,.25-2.21,2.74c-.88,1.5-1.8,2.78-2.81,3.92h0s-7.85,8.83-7.85,8.83Z" fill="#002346"></path>
    </g>
    <g>
      <polygon points="323.05 381.37 347.67 378.11 357.39 328.3 336.83 328.3 323.05 381.37" fill="#008346"></polygon>
      <path d="M322.37,381.96l14.07-54.16h21.54l-9.91,50.76-25.71,3.4Zm14.85-53.16l-13.51,51.98,23.53-3.12,9.53-48.86h-19.56Z" fill="#002346"></path>
    </g>
    <g>
      <polygon points="323.05 381.37 320.85 379.26 333.8 326.01 357.39 326.01 357.39 328.3 336.83 328.3 323.05 381.37" fill="#fff"></polygon>
      <path d="M323.31,382.32l-3.02-2.9,.07-.28,13.05-53.63h24.47v3.29h-20.66l-13.91,53.52Zm-1.92-3.22l1.38,1.32,13.67-52.62h20.44v-1.29h-22.69l-12.8,52.59Z" fill="#002346"></path>
    </g>
    <g>
      <path d="M350.18,365.93s-.06-.02-.05-.04c.27-.62,1.97-5.13-3.67-9.65-6.07-4.86-4.86-7.29-3.65-8.5,0,0-3.64-4.86,1.22-4.86,0,0,0-4.86,4.86-3.65,0,0,1.21-5.25,8.5-.19,0,0,6.81,2.4,6.95,10.34,.06,3.77-1.39,7.45-3.95,10.23-2.02,2.18-5.23,4.65-10.2,6.32Z" fill="#f2b3c1"></path>
      <path d="M350.02,366.51l-.49-.49,.12-.33c.21-.47,1.86-4.74-3.52-9.05-3.14-2.51-4.72-4.65-4.82-6.53-.05-.89,.23-1.68,.84-2.41-.53-.8-1.63-2.73-.95-4.08,.37-.73,1.16-1.14,2.35-1.23,.09-.76,.41-2.22,1.56-3.12,.88-.69,2.03-.9,3.44-.63,.25-.59,.83-1.58,2.04-2.05,1.76-.68,4.12,0,7.02,2,.74,.29,7.08,3.03,7.21,10.79,.07,3.84-1.42,7.7-4.09,10.58-2.63,2.85-6.14,5.02-10.41,6.46h0l-.31,.1Zm-2.58-26.97c-.69,0-1.26,.17-1.71,.52-1.18,.92-1.21,2.8-1.21,2.81v.5s-.5,0-.5,0c-.72,0-1.63,.12-1.92,.68-.46,.93,.67,2.79,1.1,3.37l.26,.35-.31,.31c-.61,.61-.88,1.23-.83,1.95,.09,1.56,1.58,3.51,4.44,5.8,4.66,3.73,4.52,7.55,4.12,9.3,3.72-1.38,6.79-3.35,9.12-5.88,2.49-2.69,3.88-6.29,3.82-9.87-.13-7.48-6.35-9.78-6.61-9.88l-.12-.06c-2.59-1.8-4.7-2.47-6.12-1.93-1.26,.48-1.58,1.77-1.6,1.82l-.12,.49-.49-.12c-.48-.12-.92-.18-1.32-.18Z" fill="#002346"></path>
    </g>
    <g>
      <ellipse cx="248.66" cy="291.25" rx="6.68" ry="9.11" fill="#f2b3c1"></ellipse>
      <path d="M248.65,300.86c-3.96,0-7.18-4.31-7.18-9.62s3.22-9.61,7.18-9.61,7.19,4.31,7.19,9.61-3.22,9.62-7.19,9.62Zm0-18.22c-3.41,0-6.17,3.86-6.17,8.6s2.77,8.61,6.17,8.61,6.18-3.86,6.18-8.61-2.77-8.6-6.18-8.6Z" fill="#002346"></path>
    </g>
    <g>
      <path d="M309.13,545.11c-45.84,7.32-82.9-5.43-82.9-5.43-70.38-18.43-91.63-54.78-98.06-75.56-2.89-9.34-2.77-15.55-2.77-15.55-3.65-85-37.66-177.37-37.66-177.37,0,0,40.09-14.57,41.3,25.51l-.69,69.25s.09,34.62,26.2,62c0,0,9.72,13.89,94.15,34.89,9.75,2.41,11.66,12.79,11.41,22.24-.41,15.55,5.51,30.74,17,41.22,1.71,1.56,3.5,3.04,5.36,4.41,8.06,5.92,17.12,10.32,26.74,12.99,.75,.21,.68,1.28-.08,1.4Z" fill="#fff"></path>
      <path d="M280.27,547.85c-31.35,0-53.91-7.6-54.2-7.7-70.9-18.57-92.07-55.51-98.37-75.89-2.88-9.31-2.8-15.45-2.79-15.71-3.6-83.92-37.29-176.26-37.63-177.19l-.17-.47,.47-.17c.19-.07,18.93-6.73,31.25,1.62,6.77,4.59,10.37,12.78,10.72,24.35l-.69,69.27c0,.34,.4,34.74,26.06,61.65,.14,.19,10.96,14.12,93.91,34.75,8.17,2.02,12.13,9.67,11.79,22.74-.42,15.81,5.72,30.7,16.84,40.84,1.69,1.54,3.48,3.02,5.32,4.38,8.03,5.9,16.97,10.25,26.58,12.91,.57,.16,.92,.65,.89,1.24-.03,.59-.45,1.04-1.03,1.14h0c-10.16,1.62-19.92,2.25-28.94,2.25ZM88.38,271.51c2.65,7.35,34.04,96.08,37.52,177.04,0,.09-.08,6.28,2.75,15.42,6.24,20.17,27.24,56.77,97.71,75.22,.41,.14,37.52,12.63,82.7,5.42h0c.16-.02,.19-.14,.19-.21,0-.08-.02-.18-.16-.22-9.73-2.69-18.78-7.09-26.91-13.06-1.87-1.38-3.69-2.88-5.4-4.44-11.33-10.34-17.59-25.5-17.16-41.6,.33-12.54-3.38-19.85-11.03-21.74-83.65-20.81-94.04-34.52-94.44-35.09-25.9-27.15-26.29-61.94-26.29-62.29l.69-69.26c-.34-11.2-3.8-19.13-10.28-23.53-10.81-7.34-26.92-2.63-29.87-1.67Z" fill="#002346"></path>
    </g>
    <path d="M716.52,56.36h-17v-8h17v1h3v6h-3v1Zm-16-1h15v-1h3v-4h-3v-1h-15v6Z" fill="#fff"></path>
    <g>
      <path d="M503.83,94.53c-.75,.73-1.9,1.09-3.45,1.09h-2.55v5.53h-1.73v-13.24h4.28c1.49,0,2.63,.36,3.41,1.08s1.17,1.65,1.17,2.79-.38,2.02-1.13,2.75Zm-1.32-.96c.46-.42,.68-1.01,.68-1.79,0-1.63-.94-2.45-2.81-2.45h-2.55v4.86h2.55c.96,0,1.67-.21,2.13-.63Z" fill="#fff"></path>
      <path d="M516.55,96.59h-8.32c.06,1.03,.42,1.83,1.05,2.4s1.42,.86,2.33,.86c.75,0,1.37-.17,1.87-.52,.5-.35,.85-.81,1.05-1.4h1.86c-.28,1-.84,1.81-1.67,2.44s-1.88,.94-3.12,.94c-.99,0-1.87-.22-2.65-.67s-1.39-1.07-1.83-1.89c-.44-.82-.66-1.76-.66-2.84s.21-2.02,.65-2.83,1.04-1.43,1.81-1.87c.78-.44,1.67-.66,2.69-.66s1.86,.22,2.62,.65c.76,.43,1.35,1.02,1.76,1.78,.41,.75,.62,1.61,.62,2.55,0,.33-.02,.68-.06,1.05Zm-2.17-3.11c-.29-.48-.69-.84-1.19-1.08-.5-.25-1.05-.37-1.66-.37-.87,0-1.62,.28-2.23,.84-.61,.56-.97,1.33-1.05,2.32h6.57c0-.66-.15-1.23-.44-1.7Z" fill="#fff"></path>
      <path d="M521.92,91.04c.56-.33,1.25-.49,2.06-.49v1.79h-.46c-1.94,0-2.91,1.05-2.91,3.15v5.66h-1.73v-10.41h1.73v1.69c.3-.6,.74-1.06,1.3-1.39Z" fill="#fff"></path>
      <path d="M540.66,91.05c.63,.34,1.13,.84,1.5,1.51,.37,.67,.55,1.49,.55,2.45v6.14h-1.71v-5.89c0-1.04-.26-1.83-.77-2.38-.51-.55-1.21-.83-2.08-.83s-1.62,.29-2.15,.86c-.53,.58-.8,1.41-.8,2.5v5.74h-1.71v-5.89c0-1.04-.26-1.83-.77-2.38s-1.21-.83-2.08-.83-1.62,.29-2.15,.86c-.53,.58-.8,1.41-.8,2.5v5.74h-1.73v-10.41h1.73v1.5c.34-.54,.8-.96,1.38-1.25,.58-.29,1.21-.44,1.91-.44,.87,0,1.65,.2,2.32,.59,.67,.39,1.17,.97,1.5,1.73,.29-.73,.77-1.3,1.44-1.71s1.42-.61,2.24-.61,1.53,.17,2.17,.5Z" fill="#fff"></path>
      <path d="M545.6,88.7c-.23-.23-.34-.51-.34-.84s.11-.61,.34-.84c.23-.23,.51-.34,.84-.34s.59,.11,.81,.34c.22,.23,.33,.51,.33,.84s-.11,.61-.33,.84c-.22,.23-.49,.34-.81,.34s-.61-.11-.84-.34Zm1.67,2.03v10.41h-1.73v-10.41h1.73Z" fill="#fff"></path>
      <path d="M551.76,100.91c-.63-.27-1.13-.65-1.5-1.14-.37-.49-.57-1.05-.61-1.68h1.79c.05,.52,.29,.94,.73,1.27,.44,.33,1.01,.49,1.72,.49,.66,0,1.18-.15,1.56-.44,.38-.29,.57-.66,.57-1.1s-.2-.79-.61-1.02c-.41-.22-1.03-.44-1.88-.66-.77-.2-1.4-.41-1.89-.62-.49-.21-.91-.52-1.25-.93-.35-.41-.52-.95-.52-1.62,0-.53,.16-1.02,.48-1.46,.32-.44,.77-.79,1.35-1.05s1.25-.39,2-.39c1.15,0,2.08,.29,2.79,.87,.71,.58,1.09,1.38,1.14,2.39h-1.73c-.04-.54-.26-.98-.66-1.31s-.93-.49-1.61-.49c-.62,0-1.11,.13-1.48,.4-.37,.27-.55,.61-.55,1.04,0,.34,.11,.62,.33,.85,.22,.22,.5,.4,.84,.53,.33,.13,.8,.28,1.4,.45,.75,.2,1.36,.4,1.82,.6,.47,.2,.87,.49,1.21,.88,.34,.39,.51,.91,.52,1.54,0,.57-.16,1.08-.47,1.54-.32,.46-.76,.81-1.34,1.07-.58,.26-1.24,.39-1.99,.39-.8,0-1.51-.14-2.15-.41Z" fill="#fff"></path>
      <path d="M561.68,100.91c-.63-.27-1.13-.65-1.5-1.14-.37-.49-.57-1.05-.61-1.68h1.79c.05,.52,.29,.94,.73,1.27,.44,.33,1.01,.49,1.72,.49,.66,0,1.18-.15,1.56-.44,.38-.29,.57-.66,.57-1.1s-.2-.79-.61-1.02-1.03-.44-1.88-.66c-.77-.2-1.4-.41-1.89-.62s-.91-.52-1.25-.93c-.35-.41-.52-.95-.52-1.62,0-.53,.16-1.02,.47-1.46s.77-.79,1.35-1.05c.58-.26,1.25-.39,1.99-.39,1.15,0,2.08,.29,2.79,.87,.71,.58,1.09,1.38,1.14,2.39h-1.73c-.04-.54-.26-.98-.66-1.31-.4-.33-.93-.49-1.61-.49-.62,0-1.12,.13-1.48,.4-.37,.27-.55,.61-.55,1.04,0,.34,.11,.62,.33,.85s.5,.4,.84,.53c.33,.13,.8,.28,1.4,.45,.75,.2,1.36,.4,1.82,.6,.47,.2,.87,.49,1.21,.88s.51,.91,.52,1.54c0,.57-.16,1.08-.48,1.54-.32,.46-.76,.81-1.34,1.07-.58,.26-1.24,.39-1.99,.39-.8,0-1.51-.14-2.15-.41Z" fill="#fff"></path>
      <path d="M570.11,88.7c-.23-.23-.34-.51-.34-.84s.11-.61,.34-.84c.23-.23,.51-.34,.84-.34s.59,.11,.81,.34c.22,.23,.33,.51,.33,.84s-.11,.61-.33,.84c-.22,.23-.49,.34-.81,.34s-.61-.11-.84-.34Zm1.67,2.03v10.41h-1.73v-10.41h1.73Z" fill="#fff"></path>
      <path d="M576.62,100.65c-.79-.44-1.41-1.07-1.86-1.89-.45-.82-.67-1.76-.67-2.84s.23-2,.69-2.82c.46-.82,1.09-1.44,1.89-1.88,.8-.44,1.69-.66,2.68-.66s1.88,.22,2.68,.66c.8,.44,1.43,1.06,1.89,1.87,.46,.81,.69,1.75,.69,2.83s-.24,2.02-.71,2.84c-.48,.82-1.12,1.45-1.93,1.89s-1.71,.67-2.7,.67-1.86-.22-2.65-.67Zm4.4-1.29c.54-.29,.98-.73,1.32-1.31,.34-.58,.5-1.29,.5-2.13s-.17-1.55-.49-2.13c-.33-.58-.76-1.02-1.29-1.3-.53-.29-1.11-.43-1.73-.43s-1.21,.14-1.74,.43-.95,.72-1.26,1.3c-.32,.58-.47,1.29-.47,2.13s.15,1.56,.46,2.15c.31,.58,.72,1.02,1.24,1.3s1.09,.43,1.71,.43,1.2-.15,1.75-.44Z" fill="#fff"></path>
      <path d="M595.04,91.7c.79,.77,1.18,1.87,1.18,3.32v6.14h-1.71v-5.89c0-1.04-.26-1.83-.78-2.38s-1.23-.83-2.13-.83-1.64,.28-2.17,.85-.81,1.4-.81,2.49v5.76h-1.73v-10.41h1.73v1.48c.34-.53,.81-.94,1.4-1.24,.59-.29,1.24-.44,1.95-.44,1.27,0,2.29,.38,3.08,1.15Z" fill="#fff"></path>
      <path d="M611.85,94.53c-.75,.73-1.9,1.09-3.45,1.09h-2.55v5.53h-1.73v-13.24h4.28c1.49,0,2.63,.36,3.41,1.08s1.17,1.65,1.17,2.79-.38,2.02-1.13,2.75Zm-1.32-.96c.46-.42,.68-1.01,.68-1.79,0-1.63-.94-2.45-2.81-2.45h-2.55v4.86h2.55c.96,0,1.67-.21,2.13-.63Z" fill="#fff"></path>
      <path d="M624.56,96.59h-8.32c.06,1.03,.42,1.83,1.05,2.4s1.42,.86,2.33,.86c.75,0,1.37-.17,1.87-.52,.5-.35,.85-.81,1.05-1.4h1.86c-.28,1-.84,1.81-1.67,2.44s-1.88,.94-3.12,.94c-.99,0-1.87-.22-2.65-.67s-1.39-1.07-1.83-1.89c-.44-.82-.66-1.76-.66-2.84s.21-2.02,.65-2.83,1.04-1.43,1.81-1.87c.78-.44,1.67-.66,2.69-.66s1.86,.22,2.62,.65c.76,.43,1.35,1.02,1.76,1.78,.41,.75,.62,1.61,.62,2.55,0,.33-.02,.68-.06,1.05Zm-2.17-3.11c-.29-.48-.69-.84-1.19-1.08-.5-.25-1.05-.37-1.66-.37-.87,0-1.62,.28-2.23,.84-.61,.56-.97,1.33-1.05,2.32h6.57c0-.66-.15-1.23-.44-1.7Z" fill="#fff"></path>
      <path d="M629.93,91.04c.56-.33,1.25-.49,2.06-.49v1.79h-.46c-1.94,0-2.91,1.05-2.91,3.15v5.66h-1.73v-10.41h1.73v1.69c.3-.6,.74-1.06,1.3-1.39Z" fill="#fff"></path>
      <path d="M646.89,98.2h-5.78l-1.06,2.95h-1.82l4.79-13.17h2l4.77,13.17h-1.82l-1.06-2.95Zm-.49-1.41l-2.39-6.69-2.39,6.69h4.79Z" fill="#fff"></path>
      <path d="M655.13,91.16c.68-.4,1.47-.6,2.37-.6s1.76,.22,2.52,.67c.75,.44,1.35,1.07,1.78,1.87,.43,.8,.65,1.74,.65,2.8s-.22,1.99-.65,2.81-1.02,1.46-1.78,1.92c-.75,.46-1.59,.68-2.52,.68s-1.67-.2-2.35-.6c-.68-.4-1.19-.9-1.55-1.49v6.86h-1.73v-15.35h1.73v1.92c.34-.59,.85-1.09,1.53-1.49Zm5.06,2.69c-.32-.58-.74-1.03-1.28-1.33-.54-.3-1.13-.46-1.78-.46s-1.22,.16-1.76,.47c-.54,.31-.97,.76-1.29,1.35-.32,.59-.48,1.27-.48,2.04s.16,1.47,.48,2.06c.32,.59,.75,1.04,1.29,1.35,.54,.31,1.12,.47,1.76,.47s1.24-.16,1.78-.47c.54-.31,.97-.76,1.28-1.35,.32-.59,.47-1.28,.47-2.08s-.16-1.47-.47-2.05Z" fill="#fff"></path>
      <path d="M667.97,91.16c.68-.4,1.46-.6,2.37-.6s1.76,.22,2.52,.67c.75,.44,1.35,1.07,1.78,1.87,.43,.8,.65,1.74,.65,2.8s-.21,1.99-.65,2.81c-.43,.82-1.02,1.46-1.78,1.92-.75,.46-1.59,.68-2.52,.68s-1.67-.2-2.35-.6c-.68-.4-1.19-.9-1.55-1.49v6.86h-1.73v-15.35h1.73v1.92c.34-.59,.85-1.09,1.53-1.49Zm5.06,2.69c-.32-.58-.74-1.03-1.28-1.33s-1.13-.46-1.78-.46-1.22,.16-1.76,.47c-.54,.31-.97,.76-1.29,1.35s-.48,1.27-.48,2.04,.16,1.47,.48,2.06c.32,.59,.75,1.04,1.29,1.35,.54,.31,1.12,.47,1.76,.47s1.24-.16,1.78-.47,.97-.76,1.28-1.35c.32-.59,.47-1.28,.47-2.08s-.16-1.47-.47-2.05Z" fill="#fff"></path>
    </g>
    <path d="M240.45,427.03c-5.92,0-7.95-2.42-8.28-2.88-10.52-9.49-19.45-43.27-19.83-44.7-.07-.27,.09-.54,.36-.61,.27-.08,.54,.09,.61,.36,.09,.35,9.26,35.02,19.57,44.25,.03,.03,.06,.06,.09,.1,.07,.1,7.22,9.88,41.23-10.53,.24-.14,.54-.07,.69,.17,.14,.24,.07,.54-.17,.69-17.45,10.47-28.02,13.15-34.25,13.15Z" fill="#002346"></path>
    <path d="M316.76,408.49s-.07,0-.11-.01c-.27-.06-.44-.33-.38-.59l4.09-18.8c.06-.27,.33-.44,.59-.38,.27,.06,.44,.33,.38,.59l-4.09,18.8c-.05,.23-.26,.39-.49,.39Z" fill="#002346"></path>
    <path d="M353.55,358.32c-.2,0-.39-.12-.47-.32-.02-.06-2.42-6.03-9.95-9.81-.25-.12-.35-.42-.22-.67,.12-.25,.42-.35,.67-.22,7.89,3.96,10.33,10.09,10.43,10.35,.1,.26-.03,.55-.29,.65-.06,.02-.12,.03-.18,.03Z" fill="#002346"></path>
    <path d="M356.72,354.19c-.22,0-.42-.15-.48-.37-2.22-8.22-12.22-10.43-12.32-10.45-.27-.06-.44-.32-.39-.59s.33-.45,.59-.39c.44,.09,10.7,2.35,13.08,11.17,.07,.27-.09,.54-.35,.61-.04,.01-.09,.02-.13,.02Z" fill="#002346"></path>
    <path d="M360.05,349.82c-.22,0-.43-.15-.49-.38-1.9-7.6-10.7-9.7-10.79-9.72-.27-.06-.44-.33-.38-.6,.06-.27,.32-.44,.6-.38,.39,.09,9.49,2.25,11.54,10.45,.07,.27-.1,.54-.36,.61-.04,0-.08,.01-.12,.01Z" fill="#002346"></path>
    <g>
      <path d="M716.02,219.91c-3-9-11-9-11-9-5.59-.75-11,2.32-13.23,7.5-5.19,12.5,11.81,33,11.81,33l9.27-14.45c5.85-10.95,3.15-17.05,3.15-17.05Zm-13,9.95c-3.31,0-6-2.69-6-6s2.69-6,6-6,6,2.69,6,6-2.69,6-6,6Z" fill="#008346"></path>
      <path d="M703.66,252.25l-.44-.53c-.7-.85-17.13-20.88-11.89-33.51,2.31-5.37,7.96-8.59,13.76-7.8,0,0,0,0,0,0,.23,0,8.35,.22,11.4,9.32,.21,.5,2.6,6.66-3.18,17.46l-9.66,15.06Zm-.25-40.95c-4.81,0-9.23,2.84-11.15,7.3-4.55,10.97,8.71,28.65,11.31,31.95l8.89-13.86c5.62-10.53,3.14-16.52,3.11-16.58l-.02-.04c-2.85-8.56-10.45-8.66-10.53-8.66-.54-.07-1.08-.11-1.62-.11Zm-.38,19.06c-3.58,0-6.5-2.92-6.5-6.5s2.92-6.5,6.5-6.5,6.5,2.92,6.5,6.5-2.92,6.5-6.5,6.5Zm0-12c-3.03,0-5.5,2.47-5.5,5.5s2.47,5.5,5.5,5.5,5.5-2.47,5.5-5.5-2.47-5.5-5.5-5.5Z" fill="#002346"></path>
    </g>
    <path d="M644.02,346.89h-188c-.28,0-.5-.22-.5-.5s.22-.5,.5-.5h188c.28,0,.5,.22,.5,.5s-.22,.5-.5,.5Z" fill="#002346"></path>
    <path d="M585.45,354.94h-129c-.28,0-.5-.22-.5-.5s.22-.5,.5-.5h129c.28,0,.5,.22,.5,.5s-.22,.5-.5,.5Z" fill="#002346"></path>
    <g>
      <g>
        <path d="M475.02,394.41c0,5.25-4.25,9.5-9.5,9.5s-9.5-4.25-9.5-9.5,4.25-9.5,9.5-9.5h0c5.21-.03,9.47,4.17,9.5,9.38,0,.04,0,.08,0,.12Z" fill="#002954"></path>
        <path d="M465.52,404.41c-5.51,0-10-4.49-10-10s4.49-10,10-10h.07c2.63,0,5.1,1.02,6.98,2.87,1.89,1.87,2.94,4.36,2.96,7.01v.12c0,5.51-4.49,10-10,10Zm.06-19h-.06c-4.97,0-9,4.04-9,9s4.04,9,9,9,9-4.04,9-9v-.12c-.03-4.91-4.04-8.88-8.94-8.88Z" fill="#002346"></path>
      </g>
      <g>
        <path d="M471.94,401.41c-3.61,3.31-9.15,3.33-12.78,.05,.35-2.42,2.03-4.43,4.34-5.21-.45-.31-.82-.73-1.07-1.22-.9-1.71-.24-3.82,1.47-4.71,1.71-.9,3.82-.24,4.71,1.47,.81,1.53,.36,3.43-1.04,4.45,2.32,.76,4.02,2.76,4.37,5.18Z" fill="#fff"></path>
        <path d="M465.52,404.42c-2.39,0-4.78-.86-6.7-2.59l-.2-.18,.04-.26c.34-2.34,1.8-4.3,3.9-5.3-.23-.25-.42-.53-.58-.84-.49-.94-.59-2.02-.28-3.03s1.01-1.85,1.95-2.35c.94-.5,2.02-.6,3.04-.28,1.02,.32,1.85,1.01,2.35,1.95,.78,1.48,.53,3.29-.55,4.51,2.11,.98,3.59,2.93,3.94,5.28l.04,.26-.2,.18c-1.92,1.76-4.34,2.65-6.75,2.65Zm-5.82-3.16c3.39,2.89,8.33,2.87,11.7-.05-.41-2.12-1.91-3.84-3.99-4.51l-.93-.3,.79-.58c1.19-.87,1.58-2.5,.89-3.81-.37-.71-1-1.23-1.76-1.46-.76-.24-1.57-.16-2.28,.21s-1.23,1-1.46,1.76-.16,1.57,.21,2.28c.21,.42,.53,.78,.91,1.04l.83,.57-.95,.32c-2.06,.69-3.56,2.42-3.96,4.54Z" fill="#002346"></path>
      </g>
      <g>
        <rect x="483.02" y="386.86" width="58" height="7" fill="#002954"></rect>
        <path d="M541.52,394.36h-59v-8h59v8Zm-58-1h57v-6h-57v6Z" fill="#002346"></path>
      </g>
      <g>
        <rect x="483.02" y="396.86" width="48" height="4" fill="#fff"></rect>
        <path d="M531.52,401.36h-49v-5h49v5Zm-48-1h47v-3h-47v3Z" fill="#002346"></path>
      </g>
      <g>
        <path d="M644.45,413.89h-188c-.28,0-.5-.22-.5-.5s.22-.5,.5-.5h188c.28,0,.5,.22,.5,.5s-.22,.5-.5,.5Z" fill="#002346"></path>
        <path d="M585.45,421.94h-129c-.28,0-.5-.22-.5-.5s.22-.5,.5-.5h129c.28,0,.5,.22,.5,.5s-.22,.5-.5,.5Z" fill="#002346"></path>
      </g>
    </g>
    <g>
      <g>
        <path d="M475.02,454.41c0,5.25-4.25,9.5-9.5,9.5s-9.5-4.25-9.5-9.5,4.25-9.5,9.5-9.5h0c5.21-.03,9.47,4.17,9.5,9.38,0,.04,0,.08,0,.12Z" fill="#002954"></path>
        <path d="M465.52,464.41c-5.51,0-10-4.49-10-10s4.49-10,10-10c2.68,.02,5.15,1,7.04,2.87s2.94,4.36,2.96,7.01v.12c0,5.51-4.49,10-10,10Zm.06-19h-.06c-4.97,0-9,4.04-9,9s4.04,9,9,9,9-4.04,9-9v-.12c-.03-4.91-4.04-8.88-8.94-8.88Z" fill="#002346"></path>
      </g>
      <g>
        <path d="M471.94,461.41c-3.61,3.31-9.15,3.33-12.78,.05,.35-2.42,2.03-4.43,4.34-5.21-.45-.31-.82-.73-1.07-1.22-.9-1.71-.24-3.82,1.47-4.71,1.71-.9,3.82-.24,4.71,1.47,.81,1.53,.36,3.43-1.04,4.45,2.32,.76,4.02,2.76,4.37,5.18Z" fill="#fff"></path>
        <path d="M465.52,464.42c-2.39,0-4.78-.86-6.7-2.59l-.2-.18,.04-.26c.34-2.34,1.8-4.3,3.9-5.3-.23-.25-.42-.53-.58-.84-.49-.94-.59-2.02-.28-3.03s1.01-1.85,1.95-2.35c.94-.5,2.02-.6,3.04-.28,1.02,.32,1.85,1.01,2.35,1.95,.78,1.48,.53,3.29-.55,4.51,2.11,.98,3.59,2.93,3.94,5.28l.04,.26-.2,.18c-1.92,1.76-4.34,2.65-6.75,2.65Zm-5.82-3.16c3.39,2.89,8.33,2.87,11.7-.05-.41-2.12-1.91-3.84-3.99-4.51l-.93-.3,.79-.58c1.19-.87,1.58-2.5,.89-3.81-.37-.71-1-1.23-1.76-1.46-.76-.24-1.57-.16-2.28,.21s-1.23,1-1.46,1.76-.16,1.57,.21,2.28c.21,.42,.53,.78,.91,1.04l.83,.57-.95,.32c-2.06,.69-3.56,2.42-3.96,4.54Z" fill="#002346"></path>
      </g>
      <g>
        <rect x="483.02" y="446.86" width="58" height="7" fill="#002954"></rect>
        <path d="M541.52,454.36h-59v-8h59v8Zm-58-1h57v-6h-57v6Z" fill="#002346"></path>
      </g>
      <g>
        <rect x="483.02" y="456.86" width="48" height="4" fill="#fff"></rect>
        <path d="M531.52,461.36h-49v-5h49v5Zm-48-1h47v-3h-47v3Z" fill="#002346"></path>
      </g>
      <g>
        <path d="M644.45,473.89h-188c-.28,0-.5-.22-.5-.5s.22-.5,.5-.5h188c.28,0,.5,.22,.5,.5s-.22,.5-.5,.5Z" fill="#002346"></path>
        <path d="M585.45,481.94h-129c-.28,0-.5-.22-.5-.5s.22-.5,.5-.5h129c.28,0,.5,.22,.5,.5s-.22,.5-.5,.5Z" fill="#002346"></path>
      </g>
    </g>
    <g>
      <g>
        <path d="M475.02,523.41c0,5.25-4.25,9.5-9.5,9.5s-9.5-4.25-9.5-9.5,4.25-9.5,9.5-9.5h0c5.21-.03,9.47,4.17,9.5,9.38,0,.04,0,.08,0,.12Z" fill="#002954"></path>
        <path d="M465.52,533.41c-5.51,0-10-4.49-10-10s4.56-10.02,10.07-10c2.63,0,5.1,1.02,6.98,2.87,1.89,1.87,2.94,4.36,2.96,7.01v.12c0,5.51-4.49,10-10,10Zm.06-19h-.06c-4.97,0-9,4.04-9,9s4.04,9,9,9,9-4.04,9-9v-.12c-.03-4.91-4.04-8.88-8.94-8.88Z" fill="#002346"></path>
      </g>
      <g>
        <path d="M471.94,530.41c-3.61,3.31-9.15,3.33-12.78,.05,.35-2.42,2.03-4.43,4.34-5.21-.45-.31-.82-.73-1.07-1.22-.9-1.71-.24-3.82,1.47-4.71,1.71-.9,3.82-.24,4.71,1.47,.81,1.53,.36,3.43-1.04,4.45,2.32,.76,4.02,2.76,4.37,5.18Z" fill="#fff"></path>
        <path d="M465.52,533.42c-2.39,0-4.78-.86-6.7-2.59l-.2-.18,.04-.26c.34-2.34,1.8-4.3,3.9-5.3-.23-.25-.42-.53-.58-.84-.49-.94-.59-2.02-.28-3.03s1.01-1.85,1.95-2.35c.94-.5,2.02-.59,3.04-.28s1.85,1.01,2.35,1.95c.78,1.48,.53,3.29-.55,4.51,2.11,.98,3.59,2.93,3.94,5.28l.04,.26-.2,.18c-1.92,1.76-4.34,2.65-6.75,2.65Zm-5.82-3.16c3.39,2.89,8.33,2.87,11.7-.05-.41-2.12-1.91-3.84-3.99-4.51l-.93-.3,.79-.58c1.19-.87,1.58-2.5,.89-3.81-.37-.71-1-1.23-1.76-1.46-.76-.24-1.57-.16-2.28,.21s-1.23,1-1.46,1.76-.16,1.57,.21,2.28c.21,.42,.53,.78,.91,1.04l.83,.57-.95,.32c-2.06,.69-3.56,2.42-3.96,4.54Z" fill="#002346"></path>
      </g>
      <g>
        <rect x="483.02" y="515.86" width="58" height="7" fill="#002954"></rect>
        <path d="M541.52,523.36h-59v-8h59v8Zm-58-1h57v-6h-57v6Z" fill="#002346"></path>
      </g>
      <g>
        <rect x="483.02" y="525.86" width="48" height="4" fill="#fff"></rect>
        <path d="M531.52,530.36h-49v-5h49v5Zm-48-1h47v-3h-47v3Z" fill="#002346"></path>
      </g>
      <g>
        <path d="M644.45,542.89h-188c-.28,0-.5-.22-.5-.5s.22-.5,.5-.5h188c.28,0,.5,.22,.5,.5s-.22,.5-.5,.5Z" fill="#002346"></path>
        <path d="M585.45,550.94h-129c-.28,0-.5-.22-.5-.5s.22-.5,.5-.5h129c.28,0,.5,.22,.5,.5s-.22,.5-.5,.5Z" fill="#002346"></path>
      </g>
    </g>
    <g>
      <g>
        <path d="M475.02,592.41c0,5.25-4.25,9.5-9.5,9.5s-9.5-4.25-9.5-9.5,4.25-9.5,9.5-9.5h0c5.21-.03,9.47,4.17,9.5,9.38,0,.04,0,.08,0,.12Z" fill="#002954"></path>
        <path d="M465.52,602.41c-5.51,0-10-4.49-10-10s4.49-10,10-10h.07c2.63,0,5.1,1.02,6.98,2.87,1.89,1.87,2.94,4.36,2.96,7.01v.12c0,5.51-4.49,10-10,10Zm.06-19h-.06c-4.97,0-9,4.04-9,9s4.04,9,9,9,9-4.04,9-9v-.12c-.03-4.91-4.04-8.88-8.94-8.88Z" fill="#002346"></path>
      </g>
      <g>
        <path d="M471.94,599.41c-3.61,3.31-9.15,3.33-12.78,.05,.35-2.42,2.03-4.43,4.34-5.21-.45-.31-.82-.73-1.07-1.22-.9-1.71-.24-3.82,1.47-4.71,1.71-.9,3.82-.24,4.71,1.47,.81,1.53,.36,3.43-1.04,4.45,2.32,.76,4.02,2.76,4.37,5.18Z" fill="#fff"></path>
        <path d="M465.52,602.42c-2.39,0-4.78-.86-6.7-2.59l-.2-.18,.04-.26c.34-2.34,1.8-4.3,3.9-5.3-.23-.25-.42-.53-.58-.84-.49-.94-.59-2.02-.28-3.03s1.01-1.85,1.95-2.35c.94-.5,2.02-.6,3.04-.28,1.02,.32,1.85,1.01,2.35,1.95,.78,1.48,.53,3.29-.55,4.51,2.11,.98,3.59,2.93,3.94,5.28l.04,.26-.2,.18c-1.92,1.76-4.34,2.65-6.75,2.65Zm-5.82-3.16c3.39,2.89,8.33,2.87,11.7-.05-.41-2.12-1.91-3.84-3.99-4.51l-.93-.3,.79-.58c1.19-.87,1.58-2.5,.89-3.81-.37-.71-1-1.23-1.76-1.46-.76-.24-1.57-.16-2.28,.21s-1.23,1-1.46,1.76-.16,1.57,.21,2.28c.21,.42,.53,.78,.91,1.04l.83,.57-.95,.32c-2.06,.69-3.56,2.42-3.96,4.54Z" fill="#002346"></path>
      </g>
      <g>
        <rect x="483.02" y="584.86" width="58" height="7" fill="#002954"></rect>
        <path d="M541.52,592.36h-59v-8h59v8Zm-58-1h57v-6h-57v6Z" fill="#002346"></path>
      </g>
      <g>
        <rect x="483.02" y="594.86" width="48" height="4" fill="#fff"></rect>
        <path d="M531.52,599.36h-49v-5h49v5Zm-48-1h47v-3h-47v3Z" fill="#002346"></path>
      </g>
      <g>
        <path d="M644.45,611.89h-188c-.28,0-.5-.22-.5-.5s.22-.5,.5-.5h188c.28,0,.5,.22,.5,.5s-.22,.5-.5,.5Z" fill="#002346"></path>
        <path d="M585.45,619.94h-129c-.28,0-.5-.22-.5-.5s.22-.5,.5-.5h129c.28,0,.5,.22,.5,.5s-.22,.5-.5,.5Z" fill="#002346"></path>
      </g>
    </g>
    <path d="M263.66,384.65c-4.01,0-19.23-2.62-30.66-40.23-.08-.26,.07-.54,.33-.62,.27-.08,.54,.07,.62,.33,12.71,41.81,30.35,39.5,30.52,39.47,.27-.05,.53,.14,.57,.41,.04,.27-.14,.53-.41,.57-.09,.02-.43,.06-.98,.06Z" fill="#002346"></path>
    <g>
      <g>
        <path d="M489.8,590.71l-9.8,1.96-33.61,6.72-11.26,2.25c-3.15,0-5.87-2.08-8.04-4.7-3.71-4.45-5.84-10.47-5.84-10.47l23.61-16.42c1.27,1.7,3.74,3.25,6.4,4.55,5.18,2.52,10.86,3.85,16.62,4.06,3.55,.13,6.69,.36,9.45,.66,12.57,1.37,17.33,4.09,17.33,4.09,10.93,3.64-4.86,7.29-4.86,7.29Z" fill="#002954"></path>
        <path d="M435.2,602.13c-3,0-5.82-1.64-8.5-4.87-3.72-4.47-5.84-10.37-5.93-10.62l-.13-.36,24.32-16.91,.29,.39c1.07,1.43,3.17,2.91,6.22,4.4,5.03,2.45,10.55,3.8,16.42,4.01,3.33,.12,6.52,.34,9.49,.67,12.53,1.36,17.33,4.04,17.52,4.15,2.79,.92,4.16,2,4.1,3.26-.13,2.74-7.6,4.61-9.1,4.95h-.01s-54.67,10.93-54.67,10.93h-.03Zm-13.35-15.47c.52,1.35,2.52,6.25,5.62,9.96,2.48,3,5.06,4.52,7.66,4.52l54.56-10.92c3.42-.79,8.25-2.56,8.32-4.03,.02-.33-.29-1.23-3.51-2.3-.14-.07-4.94-2.73-17.23-4.07-2.94-.32-6.11-.54-9.41-.66-6.01-.22-11.67-1.6-16.82-4.11-2.94-1.44-5.05-2.89-6.28-4.33l-22.91,15.93Z" fill="#002346"></path>
      </g>
      <g>
        <path d="M446.39,599.38l-11.26,2.25c-3.15,0-5.87-2.08-8.04-4.7,1.42-3.79,5.07-6.49,9.36-6.49,5.16,0,9.41,3.92,9.94,8.94Z" fill="#fff"></path>
        <path d="M435.2,602.13c-3,0-5.82-1.64-8.5-4.87l-.19-.22,.1-.27c1.53-4.08,5.48-6.81,9.83-6.81,5.38,0,9.87,4.04,10.44,9.39l.05,.45-11.71,2.34h-.03Zm-7.54-5.28c2.42,2.85,4.94,4.29,7.47,4.29l10.71-2.15c-.71-4.62-4.67-8.04-9.38-8.04-3.84,0-7.33,2.36-8.79,5.9Z" fill="#002346"></path>
      </g>
      <g>
        <path d="M489.8,590.71l-9.8,1.96c-2.2-2.25-3.55-5.33-3.55-8.72,0-1.63,.31-3.19,.88-4.62,12.57,1.37,17.33,4.09,17.33,4.09,10.93,3.64-4.86,7.29-4.86,7.29Z" fill="#fff"></path>
        <path d="M479.83,593.21l-.19-.19c-2.38-2.43-3.69-5.66-3.69-9.07,0-1.67,.31-3.28,.92-4.8l.14-.35,.38,.04c12.53,1.36,17.33,4.04,17.52,4.15,2.79,.92,4.16,2,4.1,3.26-.13,2.74-7.6,4.61-9.1,4.95h-.01s-10.07,2.02-10.07,2.02Zm-2.17-13.34c-.47,1.3-.71,2.67-.71,4.08,0,3.06,1.14,5.95,3.22,8.18l9.52-1.91c3.42-.79,8.25-2.56,8.32-4.03,.02-.33-.29-1.23-3.51-2.3-.13-.07-4.84-2.67-16.84-4.02Z" fill="#002346"></path>
      </g>
    </g>
    <g>
      <path d="M407.19,658.09c-13.92,6.59-22.1,5.41-25.72,4.14-.01-.26-.02-.53-.02-.79,0-9.06,7.07-16.55,16.26-17.81l9.48,5.83c9.72,5.32,0,8.63,0,8.63Z" fill="#fff"></path>
      <path d="M387.97,663.72c-2.99,0-5.19-.5-6.66-1.02l-.32-.11v-.34c-.02-.27-.03-.54-.03-.81,0-9.13,7.18-17,16.69-18.3l.18-.02,9.63,5.92c3.16,1.73,4.7,3.51,4.55,5.27-.23,2.65-4.21,4.11-4.62,4.25-8.47,4.01-14.86,5.16-19.42,5.16Zm-6.01-1.85c3.72,1.2,11.69,2.08,25.02-4.23l.05-.02c1.05-.36,3.83-1.68,3.97-3.4,.11-1.31-1.29-2.8-4.05-4.31l-9.35-5.75c-8.94,1.31-15.65,8.71-15.65,17.29,0,.14,0,.28,0,.43Z" fill="#002346"></path>
    </g>
    <g>
      <path d="M364.45,642.94c0,2.93-1.2,5.57-3.13,7.46l-6.37-3.82c-4.07-2.33-5.82-7.64-6.54-12.55,1.61-1.01,3.5-1.59,5.54-1.59,5.8,0,10.5,4.7,10.5,10.5Z" fill="#fff"></path>
      <path d="M361.4,651.03l-6.7-4.02c-3.54-2.02-5.82-6.37-6.78-12.91l-.05-.32,.28-.17c1.74-1.09,3.75-1.67,5.81-1.67,6.07,0,11,4.93,11,11,0,2.97-1.17,5.75-3.28,7.82l-.28,.27Zm-12.44-16.74c.94,6.04,3.04,10.03,6.24,11.86l6.04,3.62c1.75-1.85,2.71-4.26,2.71-6.83,0-5.51-4.49-10-10-10-1.76,0-3.48,.46-5,1.35Z" fill="#002346"></path>
    </g>
  </g>
</svg>
