<svg width="277" height="143" viewBox="0 0 277 143" fill="none" xmlns="http://www.w3.org/2000/svg">
<g clip-path="url(#clip0_1609_11080)">
<path d="M122.645 47.1124L121.451 48.7045L120.655 49.5008L119.063 50.3763L118.824 51.0929C118.824 51.0929 118.186 51.73 118.266 52.1283C118.346 52.5266 118.346 53.2429 118.346 53.2429C118.346 53.2429 117.232 54.2779 116.754 54.5962C116.276 54.9146 115.639 55.6313 115.639 55.6313C115.639 55.6313 115.241 56.1091 115.002 56.2683C114.763 56.4271 114.366 56.905 114.047 57.3829C113.728 57.8608 113.41 58.1788 113.251 58.4176C113.091 58.6563 112.613 59.2138 112.375 60.0896C112.136 60.9658 111.499 62.0005 111.499 62.0005L111.339 62.3984C111.419 63.7522 111.419 63.9909 111.578 64.4688C111.738 64.9463 111.897 64.7868 111.738 65.8222C111.578 66.8568 111.578 67.2551 111.419 67.733C111.26 68.2102 110.782 69.086 110.623 69.4847C110.464 69.8826 110.942 70.5989 110.942 70.5989C110.942 70.5989 111.181 71.6343 111.021 71.8731C110.862 72.1122 111.101 72.5897 111.101 72.5897C111.101 72.5897 112.056 73.1468 112.375 73.4655C112.693 73.7839 113.251 74.2618 113.33 74.5006C113.41 74.7397 114.047 75.8543 114.127 76.093C114.206 76.3318 114.843 77.2073 115.003 77.4464C115.162 77.6855 115.958 78.5614 115.958 78.5614C115.958 78.5614 116.993 79.3569 117.232 79.6756C117.471 79.994 118.188 80.1531 118.426 80.3919C118.665 80.6307 119.222 80.5507 119.541 80.7902C119.859 81.029 120.496 80.6307 120.815 80.7902C121.133 80.9494 122.009 80.631 122.248 80.4719C122.487 80.3127 123.044 79.7556 123.442 79.994C123.84 80.2324 124.079 79.994 124.398 80.0735C124.716 80.1531 125.194 79.7555 125.512 79.7555C125.831 79.7555 126.626 79.4368 126.865 79.4368C127.104 79.4368 127.901 78.9586 128.219 78.9586C128.537 78.9586 128.936 78.6409 129.334 78.7998C129.731 78.9586 129.572 78.4818 130.289 78.7202C131.006 78.9586 131.244 78.7202 131.483 78.9586C131.722 79.1977 132.041 78.9593 132.28 79.2777C132.519 79.5957 132.916 79.8344 132.996 80.1531C133.075 80.4719 133.553 80.7906 133.553 80.7906L134.031 80.8698C134.031 80.8698 134.668 80.3923 134.827 80.711C134.986 81.0293 135.703 80.9501 135.703 80.9501L136.419 81.746L136.659 82.0643C136.659 82.0643 137.136 83.3385 137.056 83.816C136.977 84.2935 136.977 85.3285 136.738 85.5673C136.499 85.8064 136.34 86.8414 136.34 86.8414C136.34 86.8414 136.021 87.1598 136.738 87.7969C137.455 88.4343 137.933 88.9911 138.171 89.3091C138.411 89.6278 139.048 90.5039 139.127 91.0611C139.206 91.6182 139.366 91.9366 139.684 92.6532C140.003 93.3699 140.401 93.4494 140.48 94.246C140.56 95.0419 140.719 95.0423 140.639 95.5991C140.56 96.1565 140.321 96.2361 140.56 96.6341C140.799 97.0324 141.117 97.749 141.038 97.9878C140.958 98.2266 140.799 99.2616 140.799 99.2616L140.639 99.7394L139.923 101.094L139.445 101.809C139.286 102.367 138.968 102.924 139.047 103.72C139.127 104.517 138.649 104.516 139.286 105.312C139.923 106.109 140.241 106.985 140.639 107.701C141.038 108.417 141.276 109.134 141.356 109.612C141.436 110.09 141.754 110.249 141.913 110.886C142.072 111.523 142.152 111.841 142.152 112.239C142.152 112.637 142.072 113.672 142.232 113.911C142.391 114.15 142.471 114.867 142.55 115.185C142.63 115.504 142.311 115.584 142.789 116.141C143.267 116.698 143.585 117.017 143.904 117.415C144.222 117.813 144.142 117.654 144.382 118.211C144.62 118.768 144.939 119.087 145.019 119.565C145.098 120.042 145.177 121.236 145.417 121.794C145.655 122.351 145.974 122.909 145.974 122.909C145.974 122.909 146.85 123.466 147.168 123.386C147.486 123.307 148.124 122.591 148.601 122.829C149.079 123.068 149.477 122.829 149.875 122.829C150.273 122.829 150.672 122.351 151.07 122.351C151.468 122.351 152.025 121.714 152.344 121.874C152.662 122.032 153.06 121.714 153.458 121.316C153.856 120.918 154.095 120.6 154.812 119.963C155.528 119.326 155.449 119.325 155.926 118.927C156.404 118.529 156.882 117.653 157.439 117.494C157.996 117.335 158.155 116.778 158.315 116.38C158.474 115.982 158.553 115.743 158.792 115.424C159.032 115.106 158.872 115.505 159.27 114.469C159.669 113.434 160.147 113.036 160.545 112.797C160.943 112.558 161.182 112.081 161.42 112.001C161.659 111.921 162.057 112.24 161.898 111.523C161.739 110.807 161.898 109.772 161.739 109.533C161.58 109.293 161.341 110.09 161.421 108.895C161.501 107.701 162.376 106.507 162.376 106.507C162.376 106.507 163.57 104.994 163.969 104.755C164.367 104.517 164.446 104.278 165.004 103.959C165.561 103.641 166.755 102.845 166.755 102.447C166.755 102.048 167.233 101.013 167.233 100.774C167.233 100.535 167.233 100.297 167.074 98.9429C166.915 97.5898 167.233 97.9078 166.756 96.6341C166.278 95.3603 166.198 93.7678 165.88 93.3699C165.561 92.9716 165.72 91.9362 165.72 91.6182C165.72 91.2998 166.278 90.5036 166.517 90.1852C166.756 89.8665 167.791 88.5924 167.791 88.5924C167.791 88.5924 169.383 86.7615 169.94 85.886C170.498 85.0098 171.055 84.2139 171.453 83.8956C171.851 83.5772 172.806 82.8599 173.364 82.064C173.921 81.2681 175.036 79.7555 175.116 79.5161C175.195 79.2777 175.832 78.4814 175.832 78.4814C175.832 78.4814 176.707 77.4461 176.867 76.8889C177.026 76.3315 177.822 73.2264 177.662 73.3856C177.504 73.5451 176.548 73.704 176.229 73.7835C175.911 73.8635 176.708 74.1815 174.398 74.0227C172.09 73.8631 170.896 74.2614 170.896 74.2614C170.179 74.1019 169.621 74.8981 169.382 73.7835C169.144 72.6693 168.984 72.0322 168.507 71.236C168.029 70.4398 167.71 70.1214 166.994 69.086C166.278 68.0514 166.357 68.5286 165.72 67.733C165.083 66.9368 164.924 67.1752 164.526 66.1405C164.128 65.1055 163.809 65.5038 163.331 64.0705C162.854 62.6368 162.535 62.4777 162.296 61.6818C162.057 60.8859 161.739 60.6464 161.58 59.9301C161.421 59.2135 159.59 55.5513 159.351 55.3122C159.111 55.0738 158.714 53.7993 158.793 54.0384C158.873 54.2772 159.988 55.0734 159.988 55.0734C159.988 55.0734 160.624 54.8343 160.863 54.8343C161.102 54.8343 162.058 55.7105 162.058 56.0285C162.058 56.3472 163.73 57.8601 164.128 58.9747C164.526 60.0893 165.005 60.8855 165.083 61.2039C165.162 61.5222 165.959 62.7964 166.278 63.2743C166.596 63.7522 167.631 64.7072 167.79 65.1851C167.949 65.663 169.463 67.2551 169.463 68.2901C169.463 69.3252 170.179 70.6785 170.259 70.9969C170.338 71.3152 171.771 71.7139 171.771 71.7139L173.682 71.236C173.682 71.236 176.548 69.4044 176.867 69.4044C177.185 69.4044 179.734 68.2102 179.734 68.2102C179.734 68.2102 180.768 67.2551 181.484 66.698C182.201 66.1405 182.997 65.1059 183.157 64.6276C183.316 64.1497 183.634 64.0705 184.271 63.3535C184.908 62.6369 185.784 61.9205 185.227 61.4427C184.669 60.9651 184.351 61.1243 183.555 60.3281C182.759 59.5322 182.838 59.6914 182.281 58.656C181.723 57.6213 182.36 56.4268 181.166 57.6213C179.972 58.8155 180.449 59.1339 179.255 59.3733C178.061 59.6118 177.583 60.408 177.026 59.6118C176.469 58.8155 175.911 59.2934 175.592 58.0989C175.274 56.9047 175.035 56.8247 174.956 56.3476C174.876 55.8697 174.956 55.8697 174.319 54.6751C173.682 53.4809 174.159 51.6497 174.557 52.6847C174.956 53.7197 175.592 53.8789 176.628 54.5955C177.662 55.3118 178.141 55.8697 179.096 55.9493C180.051 56.0285 180.847 55.9493 181.007 56.1081C181.166 56.2676 181.325 56.0288 181.723 56.1877C182.122 56.3472 182.28 55.9493 182.44 56.5856C182.599 57.2227 183.475 57.3023 183.872 57.7002C184.271 58.0982 184.271 57.9393 185.306 58.0982C186.342 58.2577 187.775 58.2577 187.775 58.2577L189.287 58.1777L191.039 58.3366C191.039 58.3366 192.313 59.0532 192.631 59.0532C192.95 59.0532 193.029 59.9294 193.825 60.4069C194.622 60.8848 194.781 60.9641 195.258 61.5215C195.737 62.079 195.657 62.3178 196.293 62.8749C196.931 63.4327 197.966 62.7957 198.125 62.5573C198.284 62.3181 199.08 61.9202 198.922 62.5573C198.762 63.194 199.717 62.9549 199.478 64.4681C199.24 65.9803 199.08 65.5823 199.478 66.6177C199.876 67.6527 201.628 70.8373 201.708 71.7928C201.788 72.7482 202.265 72.4298 202.345 73.306C202.424 74.1815 202.902 74.4998 202.902 75.1369C202.902 75.774 203.46 75.9328 203.539 76.411C203.619 76.8889 204.495 76.4903 204.733 76.411C204.972 76.3311 206.087 75.2961 206.087 75.2961C206.087 75.2961 206.565 75.1373 206.485 74.3407C206.405 73.5451 206.485 73.704 206.485 72.5098C206.485 71.3156 206.007 71.3156 206.246 70.1217C206.485 68.9276 207.122 68.2106 207.281 67.6534C207.44 67.0963 208.077 66.1409 208.395 66.0609C208.714 65.9814 210.466 65.1059 210.864 64.548C211.262 63.9909 211.899 63.3539 212.536 62.7171C213.173 62.0804 214.288 61.2842 214.527 61.523C214.765 61.7617 214.686 61.6821 215.084 61.6821C215.482 61.6821 216.199 62.0008 216.756 62.0804C217.313 62.16 218.428 63.5134 218.667 64.23C218.906 64.9467 218.747 64.7872 219.622 65.8225C220.498 66.8572 221.295 66.2201 221.295 67.4943C221.295 68.7684 221.295 68.6884 221.693 69.1663C222.091 69.6442 222.568 68.2905 223.046 68.45C223.523 68.6096 223.603 68.2908 224.001 69.5646C224.399 70.8388 224.638 70.8388 224.718 72.1125C224.797 73.3863 224.638 72.1921 224.638 73.2268C224.638 74.2621 224.558 74.3417 224.718 75.2968C224.877 76.2529 225.433 76.5713 225.355 76.7305C225.355 76.7305 225.832 75.3771 225.673 74.4213C225.514 73.4662 225.673 72.1129 226.071 71.7149C226.469 71.3163 226.868 70.9187 227.186 71.9537C227.504 72.9884 227.663 72.1925 228.38 73.3867C229.097 74.5812 229.733 74.3417 229.813 74.8992C229.893 75.4567 230.292 75.5366 230.848 76.0138C231.405 76.4917 231.883 75.9346 232.52 75.4567C233.158 74.9788 234.908 73.2271 234.989 72.5105C235.068 71.7942 235.785 71.953 234.511 70.1225C233.236 68.2912 233.236 67.6541 231.883 66.5395C230.53 65.4249 229.734 65.3453 230.769 63.912C231.804 62.4787 232.282 61.5237 232.919 61.922C233.556 62.3199 234.67 62.24 234.67 63.8328C234.67 65.4249 234.351 67.1766 235.466 65.2658C236.581 63.3549 237.138 62.2403 236.819 62.5594C236.501 62.8777 237.536 61.9223 237.536 61.9223C237.536 61.9223 237.616 61.2057 238.97 60.8873C240.323 60.5682 240.721 60.4094 241.199 60.1707C241.676 59.9315 243.03 58.339 243.269 57.6227C243.508 56.9061 244.145 55.6323 243.986 55.0752C243.826 54.5174 243.03 51.811 242.871 51.8902C242.712 51.9702 242.791 51.9702 241.757 50.8556C240.721 49.741 240.005 48.9447 239.845 48.4668C239.686 47.9889 239.288 47.9094 239.766 47.2726C240.244 46.6359 240.483 46.7155 240.562 46.158C240.641 45.6009 241.278 45.123 240.084 45.5213C238.89 45.9193 239.766 45.6809 238.731 45.6013C237.695 45.5213 234.989 46.1584 236.342 44.4867C237.696 42.8146 238.093 41.7799 238.332 41.7799C238.572 41.7799 239.766 40.4262 239.845 41.7C239.925 42.9738 240.402 42.6551 240.482 43.4513C240.562 44.2476 242.154 42.5758 242.154 42.5758C242.154 42.5758 242.711 42.735 243.109 43.133C243.508 43.5309 243.508 44.805 243.508 44.805C243.508 44.805 243.189 44.4067 244.065 45.0438C244.941 45.6812 245.896 45.3622 245.896 46.7159C245.896 48.0692 245.896 48.1492 246.453 48.4675C247.011 48.7859 247.568 48.6271 248.046 48.2288C248.524 47.8308 249.32 46.3975 249.32 46.3975C249.32 46.3975 249.399 45.84 248.126 45.0438C246.852 44.2479 246.056 43.6908 245.578 43.2925C245.1 42.8945 245.26 41.7004 245.737 41.2221C246.215 40.7442 246.453 40.5055 246.294 39.8687C246.135 39.2313 246.533 38.7538 247.728 38.8334C248.922 38.9133 249.161 38.7541 249.161 38.7541C249.161 38.7541 249.4 38.913 249.4 38.4354C249.4 37.9579 250.912 35.7284 250.514 35.7284C250.116 35.7284 250.595 35.1712 250.355 34.2954C250.116 33.4192 251.151 32.0662 250.276 31.4291C249.4 30.7921 249.161 30.4734 248.603 29.5183C248.046 28.5625 248.125 28.4037 246.056 28.1646C243.985 27.9258 243.03 28.6425 242.552 28.0057C242.074 27.3687 241.836 28.9608 241.518 27.05C241.199 25.1391 241.995 23.865 241.995 23.865C241.995 23.865 243.269 23.0691 243.587 22.5116C243.906 21.9542 245.179 21.7154 246.215 22.1137C247.25 22.5116 248.763 22.432 250.037 22.6715C251.311 22.9099 251.231 23.7062 251.868 22.6715C252.505 21.6358 251.868 21.1586 252.346 20.6011C252.824 20.0437 253.381 19.1678 253.779 19.725C254.177 20.2828 254.974 20.8396 255.611 20.1229C256.248 19.4066 256.487 19.327 256.487 19.327L256.804 19.6457C256.804 19.6457 257.521 19.2471 257.521 19.9634C257.521 20.6804 258.238 21.4766 257.84 22.0337C257.441 22.5916 256.885 22.5116 256.885 23.865C256.885 25.2191 256.885 24.9799 257.76 26.0949C258.636 27.2091 259.193 26.2537 259.352 27.4483C259.512 28.6425 259.67 28.404 260.547 29.1999C261.423 29.9958 261.263 29.9958 261.9 30.4737C262.537 30.9516 262.856 31.4295 262.856 30.6332C262.856 29.837 262.935 29.4391 262.856 28.7224C262.776 28.0061 263.493 27.4483 263.014 26.2541C262.537 25.0599 262.935 25.1395 261.98 24.2636C261.024 23.3882 260.387 24.4232 260.069 23.149C259.75 21.8753 261.581 21.3178 262.06 21.1586C262.537 20.9998 263.253 20.044 263.412 20.6811C263.572 21.3178 262.218 23.6269 264.528 21.1586C266.836 18.6907 265.801 19.7257 265.801 19.7257C265.801 19.7257 266.996 19.5665 267.234 19.7257C267.473 19.8852 268.111 19.009 267.871 19.089C267.632 19.1689 265.324 17.8148 265.324 17.8148L263.651 16.8598C263.651 16.8598 264.209 16.4615 264.607 16.5414C265.005 16.621 265.085 15.7452 265.484 15.6652C265.882 15.5856 268.588 16.223 269.146 16.5414C269.703 16.8598 271.693 16.9393 271.454 16.7802C271.216 16.6206 269.942 15.6656 269.862 15.3469C269.783 15.0285 266.996 14.3914 266.12 14.471C265.244 14.5503 264.449 14.789 263.732 14.5503C263.015 14.3115 261.98 13.6744 261.423 13.6744C260.866 13.6744 253.859 12.3211 253.541 12.4006C253.223 12.4802 252.745 13.9928 252.506 13.754C252.267 13.5152 251.869 13.5149 250.754 13.1965C249.64 12.8782 248.127 12.6391 246.136 12.4802C244.146 12.3211 242.793 12.6394 242.235 12.0024C241.678 11.3656 240.484 11.6044 239.13 11.5245C237.777 11.4452 236.184 11.5245 235.468 11.5245C234.751 11.5245 233.08 11.4452 232.681 11.3653C232.283 11.2853 231.806 10.7282 231.328 10.649C230.85 10.569 230.929 10.4102 229.974 10.251C229.019 10.0915 229.098 9.05685 228.78 9.93233C228.462 10.8085 228.621 10.5694 228.143 10.8878C227.665 11.2065 227.188 11.8432 226.869 11.8432C226.551 11.8432 225.277 11.9228 225.038 11.7636C224.799 11.6044 224.401 11.4452 223.604 11.4452C222.808 11.4452 222.808 11.5245 221.773 11.3653C220.738 11.2061 219.942 11.2853 218.986 10.8082C218.031 10.3303 218.031 10.0119 217.235 10.0915C216.439 10.1715 216.439 9.93233 215.324 9.93233C214.21 9.93233 212.856 10.5694 212.139 10.649C211.423 10.7286 209.831 10.569 209.273 10.3303C208.716 10.0915 208.557 9.53438 206.486 9.7728C204.416 10.0119 203.222 10.0119 203.62 9.37485C204.018 8.73814 204.496 8.10108 204.735 8.02149C204.974 7.9419 205.531 7.54395 205.132 7.38478C204.735 7.22524 204.336 6.98683 203.381 6.90689C202.426 6.8273 202.505 7.22524 201.072 7.06607C199.639 6.90689 201.868 6.50894 198.923 6.58853C195.977 6.66848 195.26 6.90689 194.942 6.90689C194.623 6.90689 194.225 6.27018 193.429 7.22524C192.633 8.18067 191.518 8.73779 189.926 8.81738C188.334 8.89732 188.254 8.6582 186.742 9.21532C185.229 9.77244 184.273 9.05614 184.592 10.3299C184.91 11.6037 185.308 12.0816 185.308 12.3204C185.308 12.5591 184.592 14.1516 183.716 13.1962C182.84 12.2408 181.247 8.49867 181.964 11.0466C182.68 13.5941 184.273 14.4703 182.76 14.8683C181.248 15.2662 181.406 14.7091 181.168 14.5496C180.929 14.3904 181.168 13.2758 181.088 12.6387C181.008 12.002 180.849 11.6037 180.531 11.2853C180.213 10.9666 180.292 10.4891 179.655 10.3299C179.018 10.1707 179.575 9.85203 178.54 9.85203C177.505 9.85203 176.63 9.21497 176.869 10.6483C177.107 12.0812 177.346 11.1262 177.983 12.4795C178.619 13.8329 179.814 12.8775 178.938 13.8329C178.062 14.7883 175.754 14.47 175.196 14.072C174.639 13.6737 174.798 14.2312 173.763 13.5145C172.728 12.7979 173.047 12.2404 171.852 12.7979C170.658 13.3554 170.26 14.3904 169.782 13.9921C169.304 13.5938 168.19 14.5492 167.792 14.072C167.393 13.5941 165.801 13.5941 165.483 14.072C165.164 14.5496 164.209 14.47 162.855 15.107C161.502 15.7437 161.9 15.1863 160.228 16.54C158.555 17.8933 157.6 19.0079 157.043 18.1321C156.486 17.2566 153.46 15.7437 154.654 15.5046C155.849 15.2659 156.406 14.7883 157.043 15.3454C157.68 15.9026 158.716 15.7437 158.874 15.3454C159.033 14.9471 159.75 14.5492 158.795 14.0717C157.839 13.5938 157.76 13.9121 156.247 13.355C154.734 12.7975 156.247 12.9571 154.177 12.6384C152.107 12.32 151.23 12.1608 150.673 12.0016C150.117 11.8425 149.32 12.0016 148.524 11.9221C147.727 11.8425 147.171 11.6833 146.454 11.7629C145.737 11.8425 145.339 11.6833 144.384 12.3999C143.428 13.1166 142.711 13.435 142.074 13.9921C141.438 14.5492 139.766 15.6642 139.288 16.0624C138.81 16.4604 137.138 17.7342 136.979 18.2121C136.82 18.6899 137.138 19.0879 136.501 19.4062C135.864 19.7246 135.227 19.7246 134.749 19.8042C134.272 19.8838 134.749 19.0875 134.272 19.8838C133.794 20.68 133.953 23.5463 134.351 23.148C134.749 22.7497 134.51 21.4763 136.262 22.6708C138.014 23.8646 139.129 23.7055 139.049 24.8201C138.969 25.9347 140.243 25.8551 140.402 26.0942C140.561 26.3326 141.357 25.7755 141.357 25.7755C141.357 25.7755 143.109 24.6609 143.109 24.1038C143.109 23.5463 144.224 22.2725 144.224 22.2725C144.224 22.2725 143.427 21.8746 143.427 21.0783C143.427 20.2824 143.667 20.043 143.825 19.2467C143.985 18.4508 142.95 19.2471 145.338 17.7338C147.726 16.2213 147.886 17.2566 147.886 17.2566C147.886 17.2566 148.204 17.575 147.806 18.0525C147.408 18.5304 146.691 19.8045 146.532 19.9634C146.373 20.1229 147.249 21.3967 147.646 21.3967C148.045 21.3967 148.841 21.078 149.319 21.1576C149.797 21.2375 150.593 20.9191 150.831 21.0783C151.071 21.2375 151.628 21.715 151.229 22.1133C150.831 22.5113 149.955 22.9888 149.319 22.83C148.681 22.6712 147.726 21.5559 148.283 23.1483C148.841 24.7408 148.204 25.1388 147.726 25.0592C147.249 24.9796 146.213 24.1837 146.373 25.3779C146.532 26.5717 145.338 27.368 145.099 27.368C144.86 27.368 144.383 27.2884 144.383 27.2884C144.383 27.2884 143.666 27.2084 143.268 27.2084C142.87 27.2084 142.073 27.6064 141.835 27.9251C141.596 28.2435 141.277 28.005 140.879 28.005C140.481 28.005 140.879 27.5271 140.083 27.368C139.287 27.2088 138.809 27.0496 138.332 27.368C137.854 27.6863 137.138 27.8455 136.819 27.6067C136.5 27.368 136.978 26.8101 136.341 27.1292C135.704 27.4476 135.226 28.3234 134.988 28.4033C134.749 28.4826 135.704 28.4033 134.749 28.4826C133.793 28.5625 133.395 28.8016 132.918 28.9605C132.44 29.12 133.077 30.0751 132.201 30.3934C131.325 30.7118 131.962 29.9955 131.086 30.7118C130.21 31.4288 130.051 32.0655 129.733 32.1451C129.414 32.225 129.494 32.3838 128.777 32.4634C128.061 32.543 128.141 32.6226 127.742 32.7022C127.344 32.7818 127.822 32.9413 126.946 32.7818C126.07 32.6226 125.433 32.9413 125.593 33.2597C125.752 33.578 128.698 34.4539 126.468 34.3743C124.239 34.2947 124.956 34.6926 125.433 35.011C125.911 35.3293 126.15 35.6477 126.389 35.7276C126.628 35.8072 127.025 36.763 127.025 36.763C127.025 36.763 127.663 36.6831 127.265 37.2405C126.867 37.798 127.424 37.9572 127.025 38.6739C126.628 39.3905 126.628 38.9126 126.309 39.0718C125.991 39.2306 125.513 39.7884 124.637 39.3106C123.761 38.8327 123.125 38.5939 122.089 38.5147C121.054 38.4347 121.77 38.2759 121.054 38.8327C120.338 39.3905 120.178 40.0272 120.258 40.7435C120.338 41.4598 120.417 42.4156 120.178 42.8935C119.94 43.371 119.94 43.8489 120.098 44.5656C120.258 45.2819 120.736 45.6009 120.736 45.6009C120.736 45.6009 121.85 45.7597 122.089 45.8397C122.328 45.9193 122.806 45.6805 123.443 46.0781C124.08 46.4764 124.717 46.6359 125.115 46.158C125.513 45.6805 127.105 45.123 127.583 44.6455C128.061 44.1676 128.379 44.0088 128.14 43.5309C127.902 43.053 128.618 41.8588 129.016 41.6201C129.414 41.3813 130.29 41.1422 130.29 41.1422L131.245 39.7092C131.245 39.7092 132.042 38.833 132.44 38.913C132.838 38.9926 135.067 39.7892 134.908 38.7541C134.749 37.7188 135.067 37.4004 135.306 37.7984C135.545 38.1963 136.182 38.0371 136.182 38.0371C136.182 38.0371 136.5 37.8783 136.739 38.1171C136.978 38.3555 137.296 39.3912 137.774 39.6296C138.252 39.8687 138.65 40.1075 138.968 40.2663C139.287 40.4259 139.605 40.2663 140.243 40.8238C140.879 41.3813 141.516 41.7 141.596 41.9384C141.676 42.1772 142.233 42.7347 142.233 42.7347C142.233 42.7347 142.79 42.8938 142.631 43.2125C142.472 43.5309 141.676 44.4867 141.278 44.6455C140.879 44.8047 139.845 44.486 140.243 44.8047C140.64 45.123 141.198 45.5213 141.437 45.2822C141.676 45.0434 143.188 43.451 143.188 43.451C143.188 43.451 143.108 43.5305 143.188 43.0527C143.268 42.5755 143.188 42.018 143.586 42.2568C143.984 42.4959 144.223 42.8142 144.383 42.4959C144.542 42.1772 144.701 42.3367 144.303 42.0979C143.904 41.8588 142.949 40.5055 142.471 40.4259C141.993 40.3459 140.799 39.5497 140.799 39.5497C140.799 39.5497 140.561 39.3109 140.003 38.6742C139.446 38.0371 139.287 38.1963 139.127 37.6388C138.968 37.0817 138.49 36.3651 139.366 36.5242C140.242 36.6834 140.799 37.2405 141.595 37.7184C142.391 38.1963 142.233 38.3551 142.949 38.833C143.665 39.3109 143.746 39.7888 144.302 39.7092C144.859 39.6296 145.497 40.0276 145.497 40.7442C145.497 41.4609 145.656 42.2568 145.815 42.4163C145.974 42.5758 146.452 42.8942 146.611 43.2125C146.77 43.5309 147.089 44.3271 147.327 44.6455C147.566 44.9639 147.805 45.203 148.044 45.6013C148.283 45.9992 148.362 45.5213 148.601 45.6809C148.84 45.84 149.159 45.7601 149.159 45.4417C149.159 45.1234 149.238 44.5659 149.238 44.5659C149.238 44.5659 150.353 44.2476 150.035 44.088C149.716 43.9288 148.76 42.9734 148.84 42.6551C148.92 42.3367 148.84 41.7 149.238 41.7796C149.636 41.8588 150.034 42.5755 150.91 41.9384C151.786 41.3013 152.821 40.983 152.502 41.9384C152.184 42.8938 152.583 43.0527 152.502 44.088C152.423 45.1234 152.821 44.8047 153.379 45.3622C153.936 45.9196 154.334 45.9996 154.732 46.1584C155.13 46.3179 155.767 46.2383 156.404 46.3179C157.041 46.3975 157.439 46.0788 157.997 46.2383C158.554 46.3975 159.828 46.1584 160.067 46.3179C160.306 46.4771 161.261 45.9996 161.341 46.5567C161.42 47.1142 161.739 46.4771 161.5 47.7509C161.261 49.0247 160.943 49.9005 160.943 49.9005C160.067 51.5726 159.749 51.9709 159.35 52.0505C158.953 52.13 158.714 52.3688 157.997 52.2892C157.281 52.2093 156.405 52.2892 155.37 52.0505C154.335 51.8113 152.424 52.2892 151.628 51.8113C150.831 51.3338 149.717 51.7317 149.239 51.1746C148.761 50.6171 147.965 50.6967 147.646 50.3784C147.328 50.06 147.169 49.1845 147.169 50.4583C147.169 51.7325 146.452 51.8117 146.293 52.4488C146.134 53.0855 146.531 52.7671 145.656 52.6875C144.78 52.6076 144.541 53.0855 143.267 52.1304C141.993 51.175 141.356 51.175 140.72 50.7767C140.082 50.3784 139.446 51.493 138.809 50.2196C138.172 48.9454 137.296 49.9804 137.216 48.9454C137.137 47.9101 137.216 47.9904 137.296 47.3533C137.376 46.7162 138.251 46.1591 137.853 45.9203C137.455 45.6816 137.774 45.2833 137.216 45.5224C136.659 45.7612 135.863 45.8408 135.226 46.0795C134.589 46.3186 136.659 46.0795 133.554 46.3186C130.449 46.5574 129.573 46.8758 129.573 46.8758C129.573 46.8758 129.334 46.7166 128.936 47.0349C128.538 47.3533 127.98 47.8312 127.423 47.5924C126.866 47.3533 126.547 47.4329 126.07 47.5128C125.592 47.5924 125.274 47.1149 124.716 47.5128C124.159 47.9104 123.522 48.0699 123.283 47.9104C123.035 47.7477 122.636 47.111 122.636 47.111L122.645 47.1124Z" fill="white" fill-opacity="0.2"/>
<path d="M175.91 99.4998C175.671 100.376 174.795 101.649 174.795 101.649L173.202 102.446C173.202 102.446 172.646 102.924 172.327 103.003C172.008 103.082 171.212 103.481 171.212 103.481C171.212 103.481 170.496 103.321 170.734 104.038C170.973 104.754 171.053 105.631 170.973 105.869C170.894 106.108 170.894 106.586 170.894 107.223C170.894 107.86 170.655 108.656 170.257 108.815C169.859 108.974 169.46 109.134 169.54 109.691C169.62 110.249 169.62 111.92 169.62 111.92L170.655 113.513C170.655 113.513 170.974 113.274 171.611 113.274C172.247 113.274 172.884 112.717 172.884 112.717C172.884 112.717 173.601 112.876 173.521 112.001C173.442 111.124 173.84 110.09 173.76 109.851C173.681 109.612 174.477 108.576 174.477 108.338C174.477 108.099 175.273 106.985 175.273 106.586C175.273 106.188 175.83 105.551 175.91 105.074C175.989 104.596 176.069 103.482 176.228 103.163C176.388 102.845 176.467 102.526 176.467 102.208C176.467 101.89 176.467 101.253 176.467 101.253L175.901 99.498L175.91 99.4998Z" fill="white" fill-opacity="0.2"/>
<path d="M238.251 110.249C238.012 110.567 237.853 113.991 237.694 114.389C237.535 114.787 237.216 116.858 237.376 117.335C237.535 117.813 237.774 119.564 237.615 120.122C237.455 120.679 237.694 122.431 237.296 122.351C236.898 122.271 236.739 122.431 236.739 122.669C236.739 122.909 237.296 123.386 237.296 123.386C237.296 123.386 238.252 123.386 238.65 123.306C239.048 123.227 239.844 122.828 240.481 122.828C241.118 122.828 241.516 122.35 242.073 122.35C242.631 122.35 243.825 121.953 244.144 122.112C244.462 122.27 244.939 121.156 245.497 121.395C246.054 121.634 247.249 120.838 247.806 120.838C248.363 120.838 248.602 119.962 249.239 120.122C249.876 120.281 251.071 119.803 251.628 120.041C252.184 120.281 253.061 119.245 253.459 120.041C253.857 120.838 255.052 121.156 255.052 121.554C255.052 121.952 254.971 122.828 254.971 122.828L255.927 122.748C255.927 122.748 257.439 121.793 257.679 121.793C257.917 121.793 258.475 120.997 258.475 121.395C258.475 121.793 257.997 122.669 257.838 123.067C257.679 123.465 257.997 123.943 257.997 123.943C257.997 123.943 258.794 124.341 258.475 125.058C258.156 125.774 258.554 125.615 258.475 126.172C258.395 126.73 258.475 126.49 258.792 126.809C259.112 127.128 259.669 127.686 260.147 127.605C260.625 127.525 260.783 127.048 261.182 127.287C261.58 127.526 262.375 127.367 262.614 127.685C262.854 128.003 261.102 128.8 264.127 127.447C267.153 126.093 267.471 125.774 267.869 125.296C268.268 124.819 268.746 124.341 269.063 124.022C269.382 123.704 269.144 123.784 270.098 123.067C271.054 122.351 271.054 122.669 271.93 121.315C272.806 119.962 273.443 119.485 273.602 119.245C273.762 119.006 274.08 118.927 274.16 117.971C274.239 117.016 274.876 116.14 274.876 115.822C274.876 115.504 275.115 115.026 275.035 114.468C274.955 113.911 275.354 113.115 274.876 112.319C274.398 111.522 275.115 111.205 274.398 110.885C273.681 110.567 273.204 110.727 273.045 110.169C272.885 109.612 272.248 109.691 272.009 108.179C271.77 106.666 270.815 106.506 270.815 106.506C270.815 106.506 269.86 106.108 270.098 105.949C270.338 105.79 270.417 104.675 270.338 104.357C270.258 104.038 270.258 103.322 270.019 102.844C269.781 102.366 269.621 101.73 269.382 101.172C269.144 100.615 268.746 100.455 268.586 99.8186C268.427 99.1819 268.188 98.9424 268.109 98.7836C268.028 98.6244 267.869 97.8285 267.71 98.7037C267.551 99.5795 267.232 101.251 267.232 101.251C267.232 101.251 266.595 102.605 266.356 103.003C266.118 103.401 265.879 104.436 265.481 104.356C265.082 104.277 264.843 104.755 264.525 104.675C264.207 104.595 263.729 104.755 263.49 104.516C263.252 104.277 262.615 103.64 262.296 103.56C261.977 103.481 261.739 102.844 261.5 102.844C261.26 102.844 260.863 102.286 260.942 101.968C261.022 101.65 261.101 100.933 261.181 100.614C261.26 100.296 261.739 99.5791 261.739 99.5791C261.739 99.5791 261.739 99.1016 261.34 99.1016C260.942 99.1016 260.862 99.1016 259.987 99.0217C259.111 98.9417 258.873 98.8625 258.553 98.8625C258.236 98.8625 258.872 98.7033 257.996 98.9421C257.121 99.1815 256.722 99.8183 256.165 100.376C255.609 100.933 256.086 100.773 255.609 100.933C255.13 101.092 255.21 100.535 254.892 101.411C254.573 102.287 255.051 102.525 254.811 102.685C254.573 102.844 252.901 102.127 252.901 102.127C252.901 102.127 253.299 102.047 252.98 101.65C252.662 101.251 252.344 100.694 251.866 100.933C251.388 101.172 250.99 101.332 250.672 101.729C250.353 102.127 250.353 102.446 250.114 102.764C249.876 103.082 249.239 103.082 249.159 103.401C249.079 103.72 249.079 104.516 248.841 104.595C248.602 104.675 248.523 104.278 248.284 104.198C248.045 104.118 248.124 103.481 247.966 103.879C247.806 104.277 247.647 104.197 247.408 104.834C247.169 105.472 247.09 106.029 246.851 106.109C246.612 106.189 246.851 106.268 246.134 106.666C245.418 107.064 245.258 107.064 244.224 107.542C243.189 108.02 243.428 108.02 242.711 108.099C241.995 108.179 241.835 108.418 241.358 108.497C240.879 108.577 240.562 108.656 240.083 109.134C239.606 109.612 239.208 109.771 238.89 109.851C238.571 109.931 238.267 110.243 238.267 110.243L238.251 110.249Z" fill="white" fill-opacity="0.2"/>
<path d="M242.948 78.7997C242.63 79.2779 241.595 80.7105 241.197 80.7904C240.798 80.8697 240.4 81.2683 240.082 81.1884C239.763 81.1084 239.047 81.1884 238.808 82.2234C238.569 83.2584 238.171 83.8159 237.931 83.7359C237.693 83.6563 238.329 85.2485 236.976 84.6121C235.623 83.9751 236.101 85.1696 235.941 85.4883C235.782 85.8063 236.18 86.6825 236.26 87.0009C236.34 87.3192 236.578 87.8767 236.897 88.3539C237.215 88.8318 237.454 89.3889 238.011 89.2304C238.569 89.0705 240.32 89.2304 240.32 89.2304C240.32 89.2304 240.957 89.4692 241.355 89.4692C241.753 89.4692 241.833 89.31 242.071 89.31C242.31 89.31 242.788 88.5134 242.708 88.4342C242.629 88.3539 242.39 88.1155 242.868 87.6376C243.346 87.1597 243.903 87.0009 243.983 86.4434C244.062 85.8863 243.823 85.8863 244.062 85.5672C244.301 85.2488 244.858 85.3291 244.699 85.0101C244.54 84.6917 244.858 84.7713 244.54 84.1339C244.222 83.4972 243.823 83.2581 244.141 82.4618C244.46 81.6659 244.779 81.5064 244.699 81.0289C244.619 80.5506 245.097 80.3918 244.54 79.8343C243.983 79.2775 243.744 79.118 243.346 78.9581L242.953 78.7954L242.948 78.7997Z" fill="white" fill-opacity="0.2"/>
<path d="M258.554 86.7622C258.873 86.6826 259.987 85.8864 260.067 87.3197C260.147 88.7526 260.226 88.3543 260.704 89.1506C261.182 89.9468 261.5 90.1863 262.057 89.788C262.614 89.3893 263.251 89.3893 263.41 88.6734C263.57 87.9567 263.57 87.9567 264.047 87.9567C264.526 87.9567 264.685 87.8771 264.924 88.1962C265.163 88.5138 265.321 88.1955 266.357 88.753C267.392 89.3104 268.267 89.1506 268.905 89.7084C269.542 90.2655 269.861 90.1866 270.736 90.5046C271.612 90.823 271.214 90.3454 272.01 91.2213C272.806 92.0968 272.488 92.3355 272.886 92.7338C273.284 93.1318 273.603 92.4151 273.443 93.3705C273.284 94.326 272.169 93.3705 273.842 94.7235C275.513 96.0776 275.752 96.3168 276.309 96.7143C276.867 97.1126 277.265 97.5905 276.788 97.5905C276.309 97.5905 274.797 97.5905 274.638 97.3514C274.479 97.1126 273.762 96.9531 273.284 96.396C272.807 95.8392 271.772 95.4406 271.533 94.963C271.294 94.4848 270.976 94.326 270.578 94.326C270.18 94.326 269.782 94.8035 269.224 95.361C268.666 95.9181 268.906 95.043 268.189 95.2814C267.472 95.5205 266.677 95.2014 266.278 94.8831C265.88 94.5647 265.96 94.0872 265.323 94.326C264.686 94.5647 264.288 94.4056 264.527 93.928C264.766 93.4498 264.606 92.8131 264.606 92.8131C264.606 92.8131 264.846 92.0168 264.289 91.858C263.731 91.6992 263.731 91.1417 263.174 90.9818C262.616 90.823 261.741 90.4247 261.741 90.4247C261.741 90.4247 261.661 90.4247 261.422 90.3451C261.183 90.2652 261.183 90.2652 260.546 90.1063C259.91 89.9468 259.431 90.1056 259.113 89.708C258.794 89.3101 258.954 88.7526 258.954 88.7526C258.954 88.7526 260.228 88.9118 258.954 87.9564L257.68 87.0013C257.68 87.0013 257.838 86.9214 257.759 86.7622C257.678 86.5995 258.555 86.7586 258.555 86.7586L258.554 86.7622Z" fill="white" fill-opacity="0.2"/>
<path d="M222.726 80.1509C222.726 80.1509 223.124 80.5495 223.761 80.4696C224.397 80.3896 224.875 81.7434 225.274 82.2209C225.671 82.6988 225.911 82.9376 226.786 83.495C227.662 84.0522 227.582 83.0171 228.776 84.6892C229.971 86.3609 229.413 85.3263 229.971 86.3609C230.528 87.397 230.846 87.9538 231.165 88.1933C231.483 88.432 231.722 89.0684 231.802 89.3075C231.882 89.5463 232.439 90.2626 232.439 90.5017C232.439 90.7405 232.598 91.3775 232.121 91.9346C231.643 92.4921 231.244 92.5717 231.244 92.5717C231.244 92.5717 230.289 92.0938 229.971 91.6163C229.652 91.1388 229.254 90.7405 228.697 89.7854C228.139 88.8296 227.502 87.7946 227.184 87.3171C226.866 86.8388 226.388 86.3609 226.149 85.8838C225.91 85.4055 225.273 83.9729 224.955 83.8134C224.636 83.6539 224.556 83.1767 223.999 82.6192C223.442 82.0617 223.521 81.5842 223.283 81.2658C223.044 80.9475 222.487 80.2301 222.487 80.2301L222.72 80.1523L222.726 80.1509Z" fill="white" fill-opacity="0.2"/>
<path d="M67.8703 142.255C67.3128 141.937 66.1186 141.379 65.7207 141.061C65.3228 140.743 64.1286 138.99 64.1286 138.99L63.2524 137.318C63.2524 137.318 62.2177 136.044 62.4565 135.567C62.6953 135.089 63.1732 134.771 63.1732 134.532C63.1732 134.293 63.6507 133.656 63.2524 133.417C62.8544 133.178 62.8544 133.099 62.6153 132.382C62.3766 131.666 62.3766 131.028 62.0582 130.869C61.7395 130.71 61.5007 129.675 61.1824 129.596C60.864 129.516 60.5453 128.958 60.5453 128.958L60.0674 122.509C60.0674 122.509 59.9079 119.564 59.7491 118.926C59.5895 118.29 59.9878 116.936 59.5895 115.742C59.1916 114.548 59.6695 113.115 59.4303 112.637C59.1916 112.159 59.5895 110.806 59.3508 109.532C59.112 108.258 60.3062 106.666 59.3508 106.188C58.3953 105.71 59.112 104.994 58.3157 104.994C57.5199 104.994 56.9624 104.595 56.2457 104.039C55.5291 103.481 54.1754 102.446 53.7774 102.047C53.3795 101.65 52.1053 100.615 51.7074 100.296C51.3094 99.9778 50.9111 98.6241 50.5928 98.2258C50.2744 97.8282 50.1153 96.634 49.6374 95.9174C49.1595 95.2011 48.5228 94.0069 48.3632 93.7677C48.2041 93.529 46.4524 91.459 46.4524 91.459L46.6116 90.1852C46.6116 90.1852 47.8058 89.4685 47.6466 89.2298C47.4874 88.9906 47.7265 88.7515 47.1687 88.2743C46.6112 87.7961 46.6908 86.9203 47.1687 86.5227C47.6466 86.124 48.3629 84.8502 48.3629 84.8502L49.5571 82.8602C49.5571 82.8602 50.5128 81.8244 50.5128 81.1081C50.5128 80.3918 51.8662 79.9143 51.07 79.2772C50.2737 78.6398 50.672 78.0827 50.4329 77.6048C50.1938 77.1273 50.3533 76.8089 51.07 76.331C51.7866 75.8532 53.0604 74.1018 53.0604 74.1018C53.0604 74.1018 54.0158 73.8627 54.2546 73.8627C54.4934 73.8627 54.8917 71.3145 55.6083 72.9865C56.325 74.6586 56.5637 73.7828 56.325 74.977C56.0858 76.1712 56.6433 75.9327 56.9617 75.6144C57.28 75.2953 56.8021 75.8532 57.4392 74.4195C58.0759 72.9865 57.8375 72.509 58.2355 72.9073C58.6334 73.3056 58.7926 73.3852 59.5092 73.624C60.2255 73.8627 60.4646 73.7828 60.7031 74.2607C60.9418 74.7386 60.8626 74.1015 62.216 74.3406C63.5693 74.5797 65.4802 73.8627 65.2414 74.6586C65.0026 75.4549 64.5247 74.579 65.6393 75.4549C66.7539 76.331 66.9135 76.4899 67.5502 76.6494C68.1869 76.8086 68.7444 76.729 69.7002 77.6844C70.6556 78.6395 70.8943 78.7194 71.1331 79.1966C71.3719 79.6748 71.7698 79.3561 72.1681 79.8337C72.5661 80.3119 73.1235 80.3119 73.6807 80.3119C74.2378 80.3119 73.6807 79.8337 74.5565 80.4711C75.4327 81.1078 76.0694 81.187 76.4673 82.4612C76.8653 83.736 77.6615 83.6557 77.0245 84.9298C76.3877 86.204 75.114 86.7611 75.6711 86.6815C76.2282 86.6016 77.2636 86.1237 77.5819 86.2036C77.9003 86.2828 78.0595 85.9648 78.5374 86.2036C79.0152 86.4424 79.0948 85.8853 79.0152 86.4424C78.9353 86.9999 78.9353 86.4424 78.9353 86.9999C78.9353 87.557 78.7761 86.4424 79.7315 86.6815C80.687 86.9203 80.1295 86.2033 81.2441 87.2386C82.359 88.274 82.359 87.9556 82.7566 88.5128C83.1549 89.0695 83.5529 88.1948 83.792 88.4332C84.0311 88.6716 84.7474 88.5124 85.4641 88.6719C86.1807 88.8308 85.7028 88.1944 86.8178 88.9107C87.932 89.627 89.047 89.3882 89.2858 90.0253C89.5245 90.662 90.1619 90.4232 90.4799 90.8215C90.7979 91.2198 90.9575 90.662 91.2762 91.2198C91.5945 91.7766 92.5503 91.6174 92.3908 92.1746C92.2313 92.7324 92.6292 92.4137 92.47 93.2096C92.3112 94.0065 91.7534 95.2803 91.2762 95.5983C90.7983 95.917 90.7987 96.315 90.4799 96.7129C90.1616 97.1115 90.2412 96.315 89.8429 97.4296C89.4449 98.5445 89.5245 98.7037 89.2062 99.7383C88.8878 100.773 89.1266 99.7383 88.8878 100.773C88.649 101.808 88.8082 102.445 88.5695 103.64C88.3307 104.834 88.4103 104.834 88.2511 105.71C88.0919 106.586 88.649 105.312 87.9324 107.143C87.2161 108.975 87.1365 108.894 86.8977 109.691C86.6586 110.487 86.9773 109.85 86.1015 110.328C85.2257 110.806 85.7035 110.646 84.6682 110.965C83.6335 111.283 82.3594 111.602 81.9614 111.682C81.5635 111.761 79.971 112.239 80.4489 113.194C80.9268 114.15 80.9268 114.309 80.4489 115.503C79.971 116.697 79.2547 117.096 79.2547 117.653C79.2547 118.21 78.936 118.767 78.8568 119.165C78.7768 119.563 79.5731 118.767 78.618 119.961C77.6626 121.156 77.583 120.837 77.2643 121.554C76.9459 122.27 77.2643 121.713 76.9459 122.27C76.6276 122.827 75.8313 123.066 75.8313 123.066C75.8313 123.066 75.9106 123.464 75.5922 123.305C75.2735 123.146 75.3534 123.385 74.1589 123.066C72.9647 122.748 72.8055 121.952 72.6464 122.509C72.4872 123.066 72.7259 123.385 73.4426 123.942C74.1589 124.5 75.3534 124.659 75.0347 125.216C74.7164 125.774 74.7164 125.774 74.4776 126.092C74.2385 126.411 74.796 126.172 74.2385 126.411C73.6814 126.65 73.3627 127.685 73.1239 127.685C72.8851 127.685 72.7256 128.083 72.4072 127.924C72.0889 127.764 71.293 127.207 71.1335 127.525C70.9743 127.843 70.6556 127.127 70.7352 128.242C70.8151 129.356 70.9743 129.993 70.576 130.233C70.178 130.471 69.2223 130.233 69.2223 130.233L69.0631 129.834L68.506 129.993C68.506 129.993 68.2672 130.949 68.6651 131.108C69.0631 131.267 68.9835 131.426 69.3814 131.904C69.7797 132.382 69.541 133.258 69.541 133.258C69.541 133.258 69.541 133.497 69.143 133.895C68.7451 134.293 68.5856 134.611 68.506 134.85C68.426 135.089 67.9485 136.124 68.6651 136.044C69.3814 135.964 69.9393 135.566 69.9393 136.841C69.9393 138.114 70.2576 137.796 69.8597 138.672C69.4614 139.548 69.143 139.627 69.0634 140.423C68.9842 141.219 69.1434 141.299 69.3026 141.777C69.4617 142.255 69.86 142.016 69.4617 142.255C69.0656 142.481 67.8735 142.244 67.8735 142.244L67.8703 142.255Z" fill="white" fill-opacity="0.2"/>
<path d="M47.3287 77.445L46.7715 76.6492C46.7715 76.6492 46.5328 76.1709 46.1345 76.0917C45.7362 76.0124 44.8603 74.9771 44.8603 74.9771C44.8603 74.9771 44.4624 74.6587 44.4624 74.1016C44.4624 73.5441 44.1437 72.6686 44.3824 71.7132C44.6216 70.7581 44.7012 69.5636 44.6216 69.2449C44.5416 68.9265 45.0195 68.847 44.4624 68.5282C43.9049 68.2099 42.7903 68.1303 42.0737 68.1303C41.3574 68.1303 40.4812 68.3694 40.322 68.4487C40.1628 68.5282 41.1978 66.0603 41.357 65.6623C41.5162 65.2644 42.2328 63.5124 42.2328 63.274C42.2328 63.0348 42.4716 62.9553 41.9941 62.6372C41.5165 62.3185 40.7203 62.1594 40.2424 62.3981C39.7649 62.6372 39.8445 62.0798 39.4465 63.0348C39.0486 63.9906 38.6503 65.0256 38.1724 65.1848C37.6948 65.3443 36.7394 65.8219 36.7394 65.8219C36.7394 65.8219 35.5452 65.7423 35.1469 65.6627C34.749 65.5831 33.0769 64.7073 32.7586 64.1501C32.4402 63.5927 32.281 62.3981 32.281 61.8414C32.281 61.2839 33.1565 59.6122 33.0769 59.2139C32.9973 58.8159 33.9531 57.2234 33.8732 56.9843C33.7932 56.7455 34.0323 55.9493 34.2711 55.6309C34.5099 55.3126 35.7044 54.9143 36.0228 54.5959C36.3411 54.2772 36.8986 53.8796 37.4557 53.7201C38.0129 53.5606 38.4911 53.4017 38.889 53.4017C39.287 53.4017 40.322 52.5259 40.4812 53.4017C40.6407 54.2772 41.3574 53.9589 41.7553 54.0385C42.1532 54.1184 42.2332 54.5163 42.8699 53.4813C43.507 52.446 44.1437 52.1276 44.1437 52.3664C44.1437 52.6055 45.1787 52.2871 45.3379 52.5259C45.497 52.7647 45.8158 52.3664 46.3729 52.8443C46.9304 53.3222 47.7262 53.4017 47.6467 53.6402C47.5671 53.8789 47.965 53.8789 47.965 54.118C47.965 54.3568 48.2837 53.5606 48.2837 54.9935C48.2837 56.4268 48.6817 57.3027 48.6817 57.3027C48.6817 57.3027 49.2388 58.4972 49.4776 58.2581C49.7163 58.0193 50.1939 57.3826 50.1939 57.3826C50.1939 57.3826 50.9901 56.9047 50.433 55.2326C49.8755 53.5609 50.2738 53.083 50.1146 52.5256C49.9551 51.9681 49.9551 51.6494 50.9105 50.9331C51.8659 50.2168 54.1747 48.6243 54.7322 48.3059C55.2893 47.9876 56.5631 47.1117 56.5631 47.1117C56.5631 47.1117 57.0406 46.873 57.1206 46.2359C57.2002 45.5992 58.7127 44.4842 58.7926 44.1659C58.8726 43.8475 59.9076 43.0516 59.9076 43.0516C59.9076 43.0516 61.0218 42.4142 60.9423 42.0166C60.8627 41.6187 62.3756 40.9024 62.6143 40.9024C62.8531 40.9024 64.1272 41.3 64.1272 40.5833C64.1272 39.867 64.1272 39.7075 64.9235 39.0708C65.7194 38.4341 66.7544 37.4783 67.1527 37.4783C67.5506 37.4783 68.9043 36.7623 69.4615 36.6028C70.0189 36.4433 71.7706 35.647 70.1781 36.6028C68.5856 37.5579 69.6206 37.0008 69.3023 37.797C68.9843 38.5929 68.7448 39.6283 70.2577 38.4337C71.7706 37.2395 71.6907 37.0004 72.2481 36.9212C72.8056 36.8416 72.4073 37.1599 73.6015 36.7616C74.796 36.3637 74.8756 36.2045 74.8756 36.2045C74.8756 36.2045 75.4331 35.7266 75.1144 35.4882C74.796 35.2491 75.4331 34.9307 74.2386 35.4083C73.0444 35.8862 73.124 35.9657 72.3277 35.7266C71.5318 35.4879 70.3373 35.5671 71.2131 34.7709C72.089 33.975 73.2036 33.7358 72.4869 33.4175C71.7706 33.0991 69.9393 33.4974 69.7006 33.5767C69.4615 33.6563 68.9043 33.4971 68.4264 33.5767C67.9489 33.6563 68.1081 32.9403 68.4264 32.7808C68.7452 32.6212 69.7802 32.1434 71.0539 31.825C72.3277 31.5066 75.4331 31.4271 76.1494 31.4271C76.8657 31.4271 77.8211 31.5866 78.3786 31.1883C78.9357 30.7903 80.0507 30.1536 80.2099 29.8346C80.3694 29.5162 81.0061 29.0387 81.0061 29.0387C81.0061 29.0387 81.7224 28.322 81.3245 28.0037C80.9265 27.6853 80.5282 26.9687 80.2099 27.1278C79.8915 27.287 80.1306 28.2428 79.4936 27.2074C78.8565 26.1728 78.9361 26.0132 78.6177 25.7745C78.2994 25.5357 77.9807 25.6945 78.2198 24.5803C78.4585 23.4657 78.379 22.9878 78.379 22.9878C78.379 22.9878 78.6177 22.0327 78.379 21.9531C78.1398 21.8732 77.981 21.6348 77.5831 21.8732C77.1848 22.112 74.9556 23.2269 74.478 23.4657C74.0002 23.7044 73.3631 22.5103 73.6018 21.9531C73.841 21.3953 73.6814 21.714 73.3631 20.9181C73.0447 20.1219 71.771 19.9624 71.2931 19.9624C70.8152 19.9624 69.7009 19.2457 69.3822 19.7236C69.0639 20.2011 67.3921 21.7137 67.0731 21.8732C66.7547 22.0327 66.2772 20.5198 66.0384 22.9878C65.7993 25.4565 66.9143 26.1728 65.6405 26.3319C64.3667 26.4911 63.2517 27.2074 63.2517 27.2074C63.2517 27.2074 62.2171 27.2874 62.2171 27.9241C62.2171 28.5615 61.8191 30.0737 61.3409 30.2329C60.8634 30.3924 59.6688 30.1536 59.2709 29.6757C58.8729 29.1979 59.3505 27.4465 59.3505 27.4465L60.0671 26.7299C60.0671 26.7299 54.9717 25.934 55.0509 25.6153C55.1308 25.2969 53.5384 24.7398 53.3792 24.2619C53.22 23.784 53.1401 22.749 53.2996 22.3511C53.4588 21.9531 55.6084 20.0423 56.723 19.6444C57.8376 19.2461 59.7484 18.3706 60.3059 18.211C60.8634 18.0519 61.8184 18.1315 62.1372 17.7335C62.4555 17.3352 62.5351 16.6189 62.5351 16.6189C62.5351 16.6189 62.3759 15.504 62.6943 15.6631C63.0126 15.8227 63.5701 16.0614 63.6497 16.3002C63.7296 16.539 63.7296 17.0964 64.2868 16.459C64.8442 15.8223 65.5609 15.5832 66.1976 15.2652C66.8347 14.9465 67.7897 15.0264 68.3476 14.7081C68.9047 14.3897 69.8601 14.071 69.9397 13.2748C70.0193 12.4789 69.7009 12.7176 69.3026 12.6377C68.9047 12.5585 69.4618 12.7176 68.1084 13.3543C66.7547 13.9911 67.153 13.5135 66.1976 13.9911C65.2422 14.4689 65.1622 14.5485 65.083 14.1506C65.0031 13.7523 65.2422 13.1156 65.2422 13.1156C65.2422 13.1156 65.3221 13.0356 64.7646 12.8768C64.2072 12.7176 64.2072 12.9564 64.1276 12.2401C64.048 11.5234 64.5255 10.4884 63.7296 10.8068C62.9334 11.1251 62.2171 10.568 61.6596 12.1602C61.1021 13.7523 59.1913 15.4247 58.7134 15.0264C58.2359 14.6285 58.1563 14.5485 57.758 14.5485C57.3597 14.5485 56.8026 14.071 56.0859 13.9914C55.3693 13.9118 53.2193 13.9118 52.6625 13.9914C52.105 14.0714 51.4683 13.6731 50.9901 14.1509C50.5126 14.6285 49.7963 15.2655 49.7963 15.5047C49.7963 15.7434 49.0796 14.6285 48.8408 14.7084C48.6021 14.788 47.9647 14.3901 47.2487 14.3901C46.5321 14.3901 46.0542 13.9918 45.8158 13.9918C45.577 13.9918 46.0542 13.3547 45.8158 13.2751C45.577 13.1959 40.4012 13.0363 40.4012 13.0363C40.4012 13.0363 38.7295 12.3996 38.0928 12.4792C37.4557 12.5588 35.7044 12.638 34.3503 12.8772C32.9966 13.1159 31.0062 13.9122 30.3695 13.9918C29.7324 14.0717 28.2995 14.0717 28.0607 13.6734C27.8216 13.2755 28.1403 13.3551 27.8216 13.2755C27.5032 13.1962 27.7423 13.0367 27.0257 12.4796C26.309 11.9221 27.3444 11.4446 25.9111 11.4446C24.4781 11.4446 23.6023 11.3646 22.3285 11.4446C21.0544 11.5242 18.4272 12.1609 18.1089 12.0813C17.7905 12.0017 15.2426 12.4796 14.8443 12.2408C14.4464 12.0017 12.4556 13.1163 12.058 13.0367C11.6601 12.9571 10.1472 13.1166 9.74922 13.3554C9.35092 13.5945 7.44008 14.0717 8.07714 14.47C8.71386 14.868 8.63427 15.2659 8.71386 15.505C8.7938 15.7438 8.07714 16.3009 8.07714 16.3009C8.07714 16.3009 7.91761 16.3009 7.04213 15.9826C6.1663 15.6638 5.21088 15.505 4.81258 15.7438C4.41464 15.9826 3.69798 16.4608 3.85716 16.7791C4.01669 17.0975 5.13094 17.8142 5.29047 17.575C5.44965 17.3363 5.84795 16.8587 6.32548 16.9383C6.80337 17.0183 7.52002 16.62 6.88296 17.4162C6.24589 18.2121 5.68841 18.6104 5.29047 18.6903C4.89252 18.7696 3.9371 18.8492 3.06127 18.9291C2.18509 19.0091 2.26467 18.6108 1.46878 19.407C0.672895 20.2029 0.354185 19.7254 0.195007 20.6012C0.0358294 21.4767 -0.123348 21.4767 0.195007 21.7158C0.513363 21.9546 -0.442058 22.0341 0.274596 22.2729C0.990897 22.512 1.86673 22.7508 1.78714 22.9892C1.7072 23.2283 2.58338 22.6712 2.1055 23.3076C1.62761 23.945 1.30961 24.5018 2.26467 23.865C3.2201 23.2283 3.77722 23.7055 4.57346 23.3076C5.3697 22.9096 6.16595 22.83 6.64348 22.5117C7.12137 22.193 7.36014 21.7158 8.07679 21.4763C8.79344 21.2375 8.31556 21.5563 8.39515 21.9542C8.47474 22.3521 8.39515 22.4317 8.87303 22.113C9.35057 21.7947 9.35057 22.0338 9.98763 21.6355C10.6243 21.2375 11.341 20.8392 11.8189 21.078C12.2964 21.3171 12.4556 21.3171 12.7743 21.3171C13.0927 21.3171 12.3764 21.2372 13.0927 21.3171C13.8093 21.3964 12.7743 21.078 15.1627 21.6355C17.5514 22.1926 18.1885 21.7947 18.3473 22.6705C18.5068 23.5463 18.8252 22.5906 19.2231 23.148C19.6211 23.7052 19.8602 23.228 20.099 24.183C20.3377 25.1388 20.099 27.766 19.9398 28.0843C19.7806 28.4027 19.701 28.4027 19.7806 29.1193C19.8602 29.8356 20.8156 33.2597 20.4973 33.4981C20.1789 33.7365 19.4623 33.8165 19.4623 33.8165L19.0643 35.2494C19.0643 35.2494 18.4276 36.4436 17.8701 37.0807C17.3126 37.7174 16.5963 38.514 16.198 39.0708C15.8001 39.6283 15.4814 40.584 14.9243 41.1412C14.3671 41.6983 13.8893 41.4595 14.0484 42.6537C14.2076 43.8479 14.0484 45.1217 14.2076 45.9978C14.3671 46.8737 14.7651 48.0679 15.0834 48.5458C15.4018 49.0233 15.6409 49.0233 16.198 49.4212C16.7555 49.8192 17.4722 50.2974 17.3922 50.6954C17.3126 51.0933 17.4718 53.562 17.4718 53.562C17.4718 53.562 17.9497 54.3579 18.0289 55.2337C18.1089 56.1099 18.666 56.9854 18.666 56.9854L19.1439 58.0207C19.1439 58.0207 19.3827 58.1007 19.7014 58.737C20.0197 59.3741 20.0197 59.3741 20.0993 59.6921C20.1793 60.0112 20.1793 59.9312 20.1793 60.0112C20.1793 60.0904 20.0993 58.6574 19.9401 58.2591C19.781 57.8612 19.781 57.3837 19.6218 56.9058C19.4626 56.4279 19.7014 55.8704 19.2238 55.1541C18.7463 54.4378 18.7463 54.3579 18.5075 53.6412C18.2688 52.9249 17.9501 52.1287 18.2688 51.9691C18.5871 51.8103 18.8259 50.7753 19.463 51.9691C20.0997 53.1633 20.1796 52.8453 20.2592 53.8007C20.3384 54.7562 20.5776 55.0749 20.8163 55.4725C21.0551 55.8704 21.6122 57.2245 21.9309 57.7813C22.2493 58.3387 21.9309 57.4629 22.6472 58.5775C23.3639 59.6921 23.4438 59.9309 23.8418 60.8067C24.2397 61.6825 24.4788 61.6825 24.7176 62.3192C24.9564 62.9567 24.7972 62.7971 24.6377 63.5134C24.4785 64.2297 24.7968 65.0263 24.7968 65.0263C24.7968 65.0263 25.9114 65.4243 25.991 65.663C26.0706 65.9018 27.1852 66.2998 27.3447 66.6185C27.5039 66.9372 28.5389 67.3348 28.5389 67.3348C28.5389 67.3348 29.4148 67.8922 29.7328 68.0514C30.0515 68.2106 31.0073 68.3701 31.0073 68.3701C31.0073 68.3701 31.644 68.5297 31.8827 68.6089C32.1215 68.6885 32.8382 68.6885 32.8382 68.6885C32.8382 68.6885 33.4752 68.211 33.714 68.3701C33.9528 68.529 34.5102 68.0514 34.749 68.4494C34.9878 68.8477 35.4657 68.8477 35.7044 69.1664C35.9432 69.4847 36.182 69.4847 36.5803 69.8827C36.9785 70.2806 37.3765 70.201 37.7744 70.5194C38.1724 70.8377 38.4907 70.8377 38.9686 70.8377C39.4462 70.8377 39.4462 70.8377 39.7649 70.9177C40.0829 70.9973 40.2424 70.6786 40.5608 71.0772C40.8791 71.4752 41.1179 71.7139 41.3566 72.1119C41.5954 72.5098 42.1529 72.5098 42.2325 73.1469C42.3121 73.7836 42.4712 73.7047 42.4712 74.2615C42.4712 74.819 42.7896 75.0577 43.0287 75.2173C43.2671 75.3761 44.143 76.172 44.143 76.172L45.3372 76.4111L46.2926 77.1277L47.3007 77.4461L47.3287 77.445Z" fill="white" fill-opacity="0.2"/>
<path d="M72.8465 3.48001L77.6237 2.88292C77.6237 2.88292 79.2954 2.88292 80.1316 2.28583C80.9675 1.68873 80.1316 1.68873 82.6395 1.2112C85.1475 0.733311 84.4312 0.494544 85.7449 0.733311C87.0583 0.972432 87.4166 0.972432 88.8499 1.2112C90.2829 1.44997 90.6412 1.09199 91.9546 1.44997C93.2684 1.80829 93.8655 1.68873 94.9404 1.68873H98.2842C99.9563 1.68873 101.509 0.733311 102.106 1.33041C102.703 1.9275 103.061 1.68873 105.092 1.9275C107.122 2.16627 107.958 1.68838 108.794 1.9275C109.63 2.16627 111.063 1.80829 112.735 1.9275C114.407 2.04671 115.243 1.80829 115.84 1.80829C116.437 1.80829 117.034 0.972078 117.87 1.68873C118.706 2.40539 119.781 1.44997 119.9 2.40539C120.02 3.36081 121.572 2.64415 120.02 3.36081C118.467 4.07746 118.706 3.9579 117.631 4.91332C116.556 5.86874 118.348 6.70461 116.079 7.54082C113.809 8.37668 113.451 7.06293 112.854 8.49624C112.257 9.9292 112.854 10.2875 112.735 11.0042C112.615 11.7205 112.376 11.84 111.66 12.4371C110.943 13.0342 110.943 12.4371 109.271 12.7955C107.599 13.1538 106.405 13.5121 105.689 13.5121C104.972 13.5121 103.42 14.1092 102.942 14.348C102.464 14.5871 103.778 14.9451 101.27 15.6617C98.7618 16.3784 98.1643 16.2592 97.448 17.2142C96.7314 18.17 96.9701 18.2896 96.4926 18.8867C96.0147 19.4838 94.5818 21.8725 93.8651 21.2754C93.1488 20.6783 92.7901 20.7975 92.193 20.2004C91.5959 19.6033 91.2376 18.7675 90.8793 18.2896C90.521 17.8117 90.4014 16.6175 90.2822 15.9008C90.163 15.1842 89.0876 13.5125 90.2822 13.7512C91.4764 13.99 92.193 13.8708 92.5514 13.632C92.9097 13.3929 93.268 12.557 93.268 12.557C93.268 12.557 93.1488 11.2433 92.7901 10.5266C92.4318 9.80999 92.6709 9.2129 92.0738 8.4966C91.4767 7.77994 91.4767 7.8995 90.6405 7.18285C89.8047 6.46619 90.0434 6.10787 88.7297 5.98866C87.4159 5.86945 87.0576 5.51077 86.5797 5.63033C86.1022 5.74954 84.5497 4.79412 86.2214 4.67491C87.8935 4.55535 89.446 4.79412 89.446 4.79412C89.446 4.79412 91.5956 3.8387 90.8793 3.71949C90.163 3.59993 91.9539 2.52495 90.2822 2.88327C88.6101 3.2416 86.6996 3.71949 86.2217 3.8387C85.7442 3.9579 84.5497 4.07746 83.3555 4.43579C82.1616 4.79412 80.728 4.67491 80.0117 5.51077C79.295 6.34663 80.0117 6.46619 79.295 6.34663C78.5787 6.22743 79.8921 5.51077 78.2204 6.34663C76.5483 7.18285 77.0262 7.06329 76.1903 6.82452C75.3541 6.58575 74.757 6.22743 74.757 6.22743C74.757 6.22743 75.8324 6.10787 74.2795 5.98866C72.727 5.86945 72.727 5.86945 72.1299 5.15244C71.5328 4.43579 71.8911 4.43579 72.2491 4.19702C72.6028 3.9579 72.8434 3.48001 72.8434 3.48001H72.8465Z" fill="white" fill-opacity="0.2"/>
<path d="M70.2191 8.85449C69.622 9.45159 68.1887 10.2878 68.5474 10.6461C68.9057 11.0045 69.1445 12.3182 69.8612 11.9599C70.5775 11.6015 69.7416 10.4074 72.4883 11.3628C75.2354 12.3182 74.9963 11.2436 75.5933 12.6765C76.1904 14.1095 76.668 15.1841 76.3096 15.5428C75.9517 15.9011 75.8321 16.2594 74.6376 16.6178C73.4434 16.9761 72.9655 17.454 73.8017 18.0507C74.6376 18.6478 76.1904 19.2449 76.9067 19.6036C77.6234 19.9616 79.773 20.0815 78.698 18.8873C77.623 17.6931 78.9368 17.3344 78.9368 17.3344C78.9368 17.3344 80.9672 18.8873 80.2509 17.0957C79.5342 15.3044 79.0563 15.3044 79.5342 15.3044C80.0121 15.3044 80.9672 15.9015 80.9672 15.9015L81.4451 14.9461L80.9672 13.3935L79.4147 11.841C79.4147 11.841 80.7281 10.6468 78.9368 10.4081C77.1455 10.1693 77.2647 10.1693 76.3093 9.57185C75.3539 8.97476 75.2347 8.73599 73.443 9.09432C71.6517 9.45265 71.0546 9.69141 71.0546 9.69141L70.2234 8.85449H70.2191Z" fill="white" fill-opacity="0.2"/>
<path d="M43.5867 10.2873C44.3034 9.57063 46.2142 7.8989 46.9309 8.37644C47.6472 8.85397 48.7218 8.01811 49.558 8.73477C50.3939 9.45142 51.3493 10.2873 52.066 10.526C52.7826 10.7648 53.6185 9.92895 54.3351 10.2873C55.0514 10.6456 57.5594 8.496 57.0818 10.1681C56.6039 11.8401 57.6789 12.3177 56.3652 12.4372C55.0514 12.5568 53.6185 13.5122 53.021 13.1539C52.4239 12.7956 51.946 12.4372 50.9906 12.9151C50.0352 13.3927 50.5131 13.3927 49.4381 13.1539C48.3635 12.9151 48.1247 13.3927 47.8859 13.0343C47.6468 12.6764 46.9305 12.7956 47.0497 11.7206C47.1689 10.646 47.5273 10.7652 46.8106 10.7652C46.0943 10.7652 45.4972 10.8847 45.0193 10.5264C44.5453 10.1681 43.5903 10.2873 43.5903 10.2873H43.5867Z" fill="white" fill-opacity="0.2"/>
<path fill-rule="evenodd" clip-rule="evenodd" d="M175.503 71.1135C175.503 67.9113 174.317 65.4465 172.486 63.7889C170.669 62.1441 168.267 61.3379 165.891 61.3379C163.514 61.3379 161.112 62.1441 159.295 63.7889C157.464 65.4465 156.278 67.9113 156.278 71.1135C156.278 75.3601 158.805 78.9024 161.122 81.2712L161.174 81.3239L161.174 81.3239C161.907 82.0733 162.547 82.7273 163.246 83.1754C164.011 83.6658 164.825 83.9012 165.891 83.9012C166.956 83.9012 167.77 83.6657 168.535 83.1753C169.235 82.7272 169.874 82.0732 170.607 81.3238L170.659 81.271C172.977 78.9022 175.503 75.36 175.503 71.1135ZM169.186 70.9507C169.186 72.771 167.711 74.2466 165.891 74.2466C164.07 74.2466 162.595 72.771 162.595 70.9507C162.595 69.1305 164.07 67.6549 165.891 67.6549C167.711 67.6549 169.186 69.1305 169.186 70.9507Z" fill="#002954"/>
</g>
<defs>
<clipPath id="clip0_1609_11080">
<rect width="277" height="141.721" fill="white" transform="translate(0 0.639648)"/>
</clipPath>
</defs>
</svg>
